<?xml version="1.0" encoding="UTF-8"?>
<!DOCTYPE svg PUBLIC "-//W3C//DTD SVG 1.1//EN" "http://www.w3.org/Graphics/SVG/1.1/DTD/svg11.dtd">
<!-- Creator: CorelDRAW 2021 (64-Bit) -->
<svg xmlns="http://www.w3.org/2000/svg" xml:space="preserve" width="4.611mm" height="4.7817mm" version="1.1" style="shape-rendering:geometricPrecision; text-rendering:geometricPrecision; image-rendering:optimizeQuality; fill-rule:evenodd; clip-rule:evenodd"
viewBox="0 0 33.89 35.15"
 xmlns:xlink="http://www.w3.org/1999/xlink"
 xmlns:xodm="http://www.corel.com/coreldraw/odm/2003">
 <defs>
  <style type="text/css">
   <![CDATA[
    .fil0 {fill:#D41443}
   ]]>
  </style>
 </defs>
 <g id="Слой_x0020_1">
  <metadata id="CorelCorpID_0Corel-Layer"/>
  <path class="fil0" d="M26.07 14.95l-26.07 0 0 5.11 26.18 0 -9.45 11.64 0.03 0.02c-0.3,0.36 -0.47,0.82 -0.47,1.31 0,1.17 0.98,2.11 2.19,2.11 0.65,0 1.23,-0.27 1.63,-0.7l0.05 0.04 13.73 -16.93 -13.73 -16.9 -0.02 0.01c-0.4,-0.41 -0.97,-0.67 -1.6,-0.67 -1.21,0 -2.19,0.95 -2.19,2.11 0,0.48 0.16,0.92 0.44,1.27l-0.07 0.05 9.34 11.51z"/>
 </g>
</svg>
