<?xml version="1.0" encoding="UTF-8"?>
<!DOCTYPE svg PUBLIC "-//W3C//DTD SVG 1.1//EN" "http://www.w3.org/Graphics/SVG/1.1/DTD/svg11.dtd">
<!-- Creator: CorelDRAW 2021 (64-Bit) -->
<svg xmlns="http://www.w3.org/2000/svg" xml:space="preserve" width="2.8787mm" height="2.8794mm" version="1.1" style="shape-rendering:geometricPrecision; text-rendering:geometricPrecision; image-rendering:optimizeQuality; fill-rule:evenodd; clip-rule:evenodd"
viewBox="0 0 8.86 8.86"
 xmlns:xlink="http://www.w3.org/1999/xlink"
 xmlns:xodm="http://www.corel.com/coreldraw/odm/2003">
 <defs>
  <style type="text/css">
   <![CDATA[
    .fil0 {fill:#FFA5BA}
   ]]>
  </style>
 </defs>
 <g id="Слой_x0020_1">
  <metadata id="CorelCorpID_0Corel-Layer"/>
  <path class="fil0" d="M3.83 3.48c0,-1.66 0.33,-1.72 1.94,-1.72l-0.03 0.93c-0.88,0 -0.8,-0.09 -0.8,0.78l0.8 0.01 -0.08 0.94 -0.72 0.02 -0 2.65 -1.11 -0.02 -0.02 -2.64 -0.51 0c-0,-0.26 -0.06,-0.73 0.05,-0.95l0.47 0zm-3.82 1.34c0.2,2.31 2.21,4.21 4.76,4.02 2.33,-0.17 4.27,-2.22 4.06,-4.78 -0.19,-2.35 -2.26,-4.27 -4.82,-4.05 -2.29,0.19 -4.23,2.26 -4.01,4.81z"/>
 </g>
</svg>
