<?xml version="1.0" encoding="UTF-8"?>
<!DOCTYPE svg PUBLIC "-//W3C//DTD SVG 1.1//EN" "http://www.w3.org/Graphics/SVG/1.1/DTD/svg11.dtd">
<!-- Creator: CorelDRAW 2021 (64-Bit) -->
<svg xmlns="http://www.w3.org/2000/svg" xml:space="preserve" width="2.8787mm" height="2.879mm" version="1.1" style="shape-rendering:geometricPrecision; text-rendering:geometricPrecision; image-rendering:optimizeQuality; fill-rule:evenodd; clip-rule:evenodd"
viewBox="0 0 225.94 225.96"
 xmlns:xlink="http://www.w3.org/1999/xlink"
 xmlns:xodm="http://www.corel.com/coreldraw/odm/2003">
 <defs>
  <style type="text/css">
   <![CDATA[
    .fil0 {fill:#FFA5BA}
   ]]>
  </style>
 </defs>
 <g id="Слой_x0020_1">
  <metadata id="CorelCorpID_0Corel-Layer"/>
  <path class="fil0" d="M101.13 140.49c-1.62,5.01 -1.11,5.56 -5.62,9.67 -8.13,-0.6 -7.2,-1.91 -11.61,-6.92 -0.49,-0.56 -3.62,-3.81 -4.47,-4.28l-7.31 -0.21c1.98,9.99 -2.9,-1.73 9.76,13.63 2.11,2.57 2.32,2.79 6.14,4.09 2.1,0.72 2.36,0.49 4.14,1.04 0.49,0.15 0.96,0.27 1.42,0.43 0.47,0.16 0.99,0.37 1.41,0.53l2.76 21.11c-29.11,-6.47 -54.78,-36.53 -51.09,-73.91 7.52,-76.29 122.01,-80 132.29,-1.59 4.95,37.69 -20.97,69.09 -50.75,75.35 0,-15.27 1.71,-26.32 -3.42,-38.94 3.88,-2.23 38.94,-11.75 24.28,-43.15 -5.75,-12.31 -0.45,-9.79 -4.14,-22.02 -7.12,-1.61 -9.14,1.92 -14.53,3.98l-34.86 0.06c-5.87,-2.43 -6.26,-5.51 -14.64,-4.3 -2.97,11.14 0.87,11.74 -3.38,21.12 -14.95,32.94 17.41,40.73 23.61,44.31zm124.13 -15.73c7.06,-65.09 -42.75,-118.39 -100.05,-124.15 -66.21,-6.66 -118.69,42.3 -124.61,100.75 -6.7,66.19 42.72,118.22 100.67,124 66.3,6.61 117.67,-42.35 123.99,-100.6z"/>
 </g>
</svg>
