<?xml version="1.0" encoding="UTF-8"?>
<!DOCTYPE svg PUBLIC "-//W3C//DTD SVG 1.1//EN" "http://www.w3.org/Graphics/SVG/1.1/DTD/svg11.dtd">
<!-- Creator: CorelDRAW 2021 (64-Bit) -->
<svg xmlns="http://www.w3.org/2000/svg" xml:space="preserve" width="12.1753mm" height="11.2341mm" version="1.1" style="shape-rendering:geometricPrecision; text-rendering:geometricPrecision; image-rendering:optimizeQuality; fill-rule:evenodd; clip-rule:evenodd"
viewBox="0 0 101.89 94.01"
 xmlns:xlink="http://www.w3.org/1999/xlink"
 xmlns:xodm="http://www.corel.com/coreldraw/odm/2003">
 <defs>
  <style type="text/css">
   <![CDATA[
    .fil0 {fill:#C7133E;fill-rule:nonzero}
   ]]>
  </style>
 </defs>
 <g id="Слой_x0020_1">
  <metadata id="CorelCorpID_0Corel-Layer"/>
  <path class="fil0" d="M41.39 60.42l0 32.88c0.02,0.82 -0.17,0.69 -0.73,0.72l-24.94 0c-1.13,-0.28 -1.74,0.39 -1.74,-1.43l0 -44.48 -6.43 3.45c-1.1,0.6 -2.19,0.76 -3.18,0.58 -0.7,-0.13 -1.34,-0.43 -1.89,-0.86 -0.54,-0.43 -1,-0.99 -1.35,-1.64 -0.78,-1.46 -1.76,-3.7 -0.59,-5.17 16.7,-14.99 33.22,-29.64 50.15,-44.36 0.14,-0.12 0.37,-0.13 0.51,0 16.93,14.71 33.45,29.36 50.15,44.36 1.17,1.47 0.19,3.71 -0.59,5.17 -0.35,0.65 -0.81,1.21 -1.35,1.64 -0.55,0.44 -1.19,0.73 -1.89,0.86 -0.99,0.18 -2.07,0.02 -3.18,-0.58l-6.43 -3.45 0 44.48c0,1.81 -0.61,1.15 -1.74,1.43l-24.94 0c-0.56,-0.03 -0.75,0.1 -0.73,-0.72l0 -32.88c-6.37,0 -12.74,0 -19.11,0z"/>
 </g>
</svg>
