<?xml version="1.0" encoding="UTF-8"?>
<!DOCTYPE svg PUBLIC "-//W3C//DTD SVG 1.1//EN" "http://www.w3.org/Graphics/SVG/1.1/DTD/svg11.dtd">
<!-- Creator: CorelDRAW 2021 (64-Bit) -->
<svg xmlns="http://www.w3.org/2000/svg" xml:space="preserve" width="4.2333mm" height="4.2333mm" version="1.1" style="shape-rendering:geometricPrecision; text-rendering:geometricPrecision; image-rendering:optimizeQuality; fill-rule:evenodd; clip-rule:evenodd"
viewBox="0 0 42.25 42.25"
 xmlns:xlink="http://www.w3.org/1999/xlink"
 xmlns:xodm="http://www.corel.com/coreldraw/odm/2003">
 <defs>
  <style type="text/css">
   <![CDATA[
    .fil0 {fill:#FFA5BA}
   ]]>
  </style>
 </defs>
 <g id="Слой_x0020_1">
  <metadata id="CorelCorpID_0Corel-Layer"/>
  <path class="fil0" d="M36.66 22.92c0.4,-0.43 -2.7,5.44 -2.22,5.17 0.81,-0.44 2.41,-0.7 3.38,-0.23 2.52,1.21 4.42,3.56 4.42,6.45 0,4.64 -4.58,7.43 -8.83,7.43 -1.77,0 -3.6,-0.48 -5.13,-1.38l-0.25 1.89 -22.96 0 -5.09 -27.87 0.17 0 -0.02 -0.1c10.71,0 21.68,0 32.39,0 -0.12,0.75 -0.28,1.49 -0.47,2.21l-1.75 11.21c0.59,0.06 1.16,0.31 1.68,0.66 0.28,0.19 1.47,-5.61 1.72,-5.37 0.13,0.13 2.82,0.06 2.94,-0.07zm-10.8 15.28c-0.79,-1.08 -1.27,-2.39 -1.27,-3.89 0,-2.18 1.09,-4.07 2.72,-5.38l0.71 -4.53c-2.98,3.55 -7.11,5.75 -11.67,5.75 -4.57,0 -8.71,-2.22 -11.7,-5.79l2.77 15.16 18.23 0 0.21 -1.33zm-22.15 -21.11c2.08,6.08 6.95,10.35 12.64,10.35 5.69,0 10.57,-4.27 12.64,-10.35l-25.28 0zm12.81 -2.82c0.14,-0.21 0.26,-0.43 0.38,-0.66 0.94,-1.81 1.17,-3.91 0.21,-5.93l-0.01 -0.02c-0.57,-1.2 -1.47,-2.11 -2.55,-2.74 -1.18,-0.69 -2.57,-1.03 -3.99,-1.04 -0.45,-0 -0.96,0.18 -1.43,0.44 -0.56,0.32 -1.06,0.75 -1.33,1.12 -0.11,0.15 -0.23,0.17 -0.37,0.07l-0 -0c-0.24,-0.17 -0.22,-2.15 -0.21,-3.78 0.01,-0.82 0.16,-1.49 0.16,-1.75 -0.26,0.19 -0.7,0.44 -1.15,0.66 -0.48,0.24 -0.99,0.47 -1.29,0.56 0.01,0.33 0.21,1.4 0.42,2.49 0.24,1.26 0.48,2.53 0.43,2.88 -0.03,0.2 -0.13,0.29 -0.31,0.27 -0.59,-0.09 -1.18,-0.07 -1.71,0.12 -0.46,0.17 -0.88,0.47 -1.23,0.94 -0.8,1.08 -1.33,2.33 -1.5,3.61 -0.12,0.92 -0.06,1.85 0.23,2.75l2.03 0 -0.01 -0.02c-0.38,-0.81 -0.49,-1.7 -0.36,-2.58 0.14,-0.91 0.53,-1.82 1.13,-2.64 0.47,-0.64 1.35,-0.31 2.3,0.04 0.75,0.28 1.55,0.58 2.05,0.34 0.45,-0.21 0.67,-1.02 0.88,-1.78 0.26,-0.95 0.51,-1.85 1.26,-1.85 1.08,0 2.1,0.25 2.95,0.73 0.83,0.46 1.49,1.13 1.9,1.98l0.02 0.05c0.6,1.32 0.48,2.83 -0.21,4.2 -0.27,0.53 -0.62,1.05 -1.05,1.52l2.35 0zm14.51 0c0.21,-0.62 0.32,-1.29 0.32,-2 0,-1.34 -0.42,-2.55 -1.13,-3.59 -0.77,-1.13 -1.88,-2.04 -3.16,-2.65 -0.41,-0.2 -0.95,-0.25 -1.49,-0.21 -0.64,0.04 -1.27,0.22 -1.68,0.44 -0.16,0.09 -0.28,0.05 -0.36,-0.1 -0.14,-0.26 0.72,-2.04 1.43,-3.51 0.36,-0.74 0.78,-1.28 0.9,-1.51 -0.32,0.06 -0.82,0.09 -1.32,0.11 -0.54,0.01 -1.09,-0 -1.4,-0.05 -0.13,0.3 -0.41,1.36 -0.69,2.43 -0.32,1.24 -0.65,2.5 -0.85,2.78 -0.11,0.17 -0.25,0.21 -0.4,0.1 -0.5,-0.34 -1.03,-0.57 -1.59,-0.63 -0.49,-0.05 -1,0.05 -1.51,0.32 -0.33,0.18 -1.09,0.54 -1.39,0.75 0.14,0.22 0.28,0.46 0.39,0.7l0.01 0.02c0.18,0.4 0.31,0.73 0.41,1.13 0.42,-0.56 0.7,-0.52 1.47,-0.93 0.7,-0.37 1.36,0.3 2.06,1.03 0.56,0.58 1.15,1.19 1.71,1.19 0.49,0 1.04,-0.63 1.56,-1.23 0.65,-0.75 1.26,-1.45 1.92,-1.13 0.98,0.47 1.79,1.13 2.35,1.92 0.55,0.77 0.86,1.66 0.86,2.61 0,0.71 -0.18,1.39 -0.49,2l2.07 0zm2.39 18.11c1.24,0 2.4,-2.86 3.38,-2.38 1.85,0.89 3.08,2.49 3.08,4.32 0,2.79 -2.89,5.06 -6.46,5.06 -3.57,0 -6.46,-2.27 -6.46,-5.06 0,-1.73 1.11,-3.26 2.81,-4.18 1.04,-0.56 2.3,2.24 3.65,2.24z"/>
 </g>
</svg>
