<?xml version="1.0" encoding="UTF-8"?>
<!DOCTYPE svg PUBLIC "-//W3C//DTD SVG 1.1//EN" "http://www.w3.org/Graphics/SVG/1.1/DTD/svg11.dtd">
<!-- Creator: CorelDRAW 2021 (64-Bit) -->
<svg xmlns="http://www.w3.org/2000/svg" xml:space="preserve" width="2.794mm" height="4.2333mm" version="1.1" style="shape-rendering:geometricPrecision; text-rendering:geometricPrecision; image-rendering:optimizeQuality; fill-rule:evenodd; clip-rule:evenodd"
viewBox="0 0 7.38 11.19"
 xmlns:xlink="http://www.w3.org/1999/xlink"
 xmlns:xodm="http://www.corel.com/coreldraw/odm/2003">
 <defs>
  <style type="text/css">
   <![CDATA[
    .fil0 {fill:#FFA5BA}
   ]]>
  </style>
 </defs>
 <g id="Слой_x0020_1">
  <metadata id="CorelCorpID_0Corel-Layer"/>
  <path class="fil0" d="M-0 4.62l0.04 0 -0 -0.02c2.43,0 4.92,0 7.35,0 -0.03,0.18 -0.06,0.35 -0.11,0.52l-0.91 6.07 -5.21 0 -1.15 -6.57zm6.49 -3.35l0.08 0.09c0.33,0.41 0.27,1.02 -0.13,1.35 -0.4,0.34 -1,0.28 -1.34,-0.13l-0.01 -0.01c-0.12,0.05 -0.24,0.09 -0.36,0.12l-0 0.39c-0,0.53 -0.43,0.96 -0.95,0.96 -0.52,-0 -0.95,-0.44 -0.94,-0.97l0 -0.38c-0.17,-0.05 -0.34,-0.11 -0.5,-0.18l-0.06 0.07c-0.33,0.41 -0.93,0.47 -1.34,0.13 -0.4,-0.34 -0.46,-0.95 -0.13,-1.35l0.22 -0.26c-0.04,-0.15 -0.06,-0.3 -0.06,-0.45l0.01 -0.65 5.6 0 0.01 0.65c0,0.22 -0.04,0.42 -0.11,0.62zm-0.52 -0.63l0 0.01c0,0.25 -0.09,0.49 -0.24,0.7l0.35 0.42c0.11,0.14 0.09,0.34 -0.04,0.45l0 0c-0.13,0.11 -0.34,0.09 -0.45,-0.04l-0.33 -0.4c-0.31,0.2 -0.71,0.34 -1.16,0.39l-0 0.92c-0,0.18 -0.14,0.32 -0.32,0.32l0 0c-0.17,-0 -0.32,-0.15 -0.32,-0.32l0 -0.92c-0.5,-0.05 -0.95,-0.22 -1.28,-0.47l-0.4 0.49c-0.11,0.14 -0.31,0.16 -0.45,0.04l0 0c-0.13,-0.11 -0.15,-0.32 -0.04,-0.45l0.45 -0.56c-0.1,-0.17 -0.15,-0.36 -0.15,-0.56l0 -0.01 4.36 0zm0.39 6.34c-0.68,0.84 -1.61,1.36 -2.65,1.36 -1.04,0 -1.98,-0.52 -2.65,-1.37l0.63 3.58 4.14 0 0.54 -3.57zm-5.51 -1.72c0.47,1.43 1.58,2.44 2.87,2.44 1.29,0 2.4,-1.01 2.87,-2.44l-5.74 0z"/>
 </g>
</svg>
