<?xml version="1.0" encoding="UTF-8"?>
<!DOCTYPE svg PUBLIC "-//W3C//DTD SVG 1.1//EN" "http://www.w3.org/Graphics/SVG/1.1/DTD/svg11.dtd">
<!-- Creator: CorelDRAW 2021 (64-Bit) -->
<svg xmlns="http://www.w3.org/2000/svg" xml:space="preserve" width="3.7253mm" height="4.2355mm" version="1.1" style="shape-rendering:geometricPrecision; text-rendering:geometricPrecision; image-rendering:optimizeQuality; fill-rule:evenodd; clip-rule:evenodd"
viewBox="0 0 117.2 133.25"
 xmlns:xlink="http://www.w3.org/1999/xlink"
 xmlns:xodm="http://www.corel.com/coreldraw/odm/2003">
 <defs>
  <style type="text/css">
   <![CDATA[
    .fil0 {fill:#FFA5BA}
   ]]>
  </style>
 </defs>
 <g id="Слой_x0020_1">
  <metadata id="CorelCorpID_0Corel-Layer"/>
  <path class="fil0" d="M58.6 11.62c6.52,-7.72 14.31,-11.62 26.23,-11.62 15.74,0 32.37,10.57 32.37,27.59 0,13.92 -8.99,26.48 -18.01,36.31 -3.36,3.67 -28.73,25.97 -31.4,27.93l0 41.42 -19 0 0 -41.42c-10.69,-8.75 -21.42,-17.73 -30.78,-27.93 -9.02,-9.83 -18.01,-22.39 -18.01,-36.31 0,-17.02 16.63,-27.59 32.37,-27.59 11.91,0 19.7,3.9 26.23,11.62zm-45.48 35.74c1.96,-4.94 6.07,-14.62 12.38,-14.99 5.78,-0.34 8.67,5.81 10.49,10.31 0.61,1.51 3.17,8.8 4.36,9.35 4.99,-0.22 5.99,-19.06 16.2,-19.66 5.78,-0.34 8.67,5.81 10.49,10.31 0.61,1.51 3.17,8.8 4.36,9.35 1.89,-0.09 4.73,-6.83 5.44,-8.35 2.06,-4.43 5.01,-10.98 10.67,-11.31 5.78,-0.34 8.67,5.81 10.49,10.31 0.51,1.27 2.39,6.59 3.68,8.6 5.81,-7.9 9.37,-15.8 9.37,-23.69 0,-11.84 -11.75,-21.44 -26.22,-21.44 -13.12,0 -19.67,5.36 -26.23,16.08 -6.56,-10.72 -13.11,-16.08 -26.23,-16.08 -14.48,0 -26.22,9.6 -26.22,21.44 0,6.69 2.55,13.37 6.86,20.05l0.11 -0.28zm84.61 8.9c-2.36,-2.49 -3.71,-6.61 -4.74,-9.35 -0.61,-1.62 -2.86,-8.31 -5.13,-8.18 -4.89,0.29 -6.81,19.26 -16.27,19.65 -5.63,0.24 -7.97,-7.26 -9.55,-11.47 -0.61,-1.63 -2.86,-8.31 -5.14,-8.18 -5.51,0.32 -5.72,19.21 -16.36,19.65 -5.63,0.24 -7.97,-7.26 -9.55,-11.47 -0.61,-1.62 -2.86,-8.31 -5.13,-8.18 -2.54,0.15 -5.96,9.38 -7.08,11.07l-2.04 3.07c10.04,12.98 25.91,25.96 41.79,38.95l0.17 0c14.5,-11.86 29,-23.71 39.05,-35.57zm-44.54 41.72l10.08 0 0 29.12 -10.08 0 0 -29.12z"/>
 </g>
</svg>
