<?xml version="1.0" encoding="UTF-8"?>
<!DOCTYPE svg PUBLIC "-//W3C//DTD SVG 1.1//EN" "http://www.w3.org/Graphics/SVG/1.1/DTD/svg11.dtd">
<!-- Creator: CorelDRAW 2021 (64-Bit) -->
<svg xmlns="http://www.w3.org/2000/svg" xml:space="preserve" width="5.08mm" height="3.7488mm" version="1.1" style="shape-rendering:geometricPrecision; text-rendering:geometricPrecision; image-rendering:optimizeQuality; fill-rule:evenodd; clip-rule:evenodd"
viewBox="0 0 17.1 12.62"
 xmlns:xlink="http://www.w3.org/1999/xlink"
 xmlns:xodm="http://www.corel.com/coreldraw/odm/2003">
 <defs>
  <style type="text/css">
   <![CDATA[
    .fil0 {fill:#E1E1E1}
   ]]>
  </style>
 </defs>
 <g id="Слой_x0020_1">
  <metadata id="CorelCorpID_0Corel-Layer"/>
  <path class="fil0" d="M2.95 0.08c1.78,-0.33 3.27,0.39 4.17,1.66 0.62,0.87 0.74,2.14 0.84,3.04 0.35,2.95 -2.37,6.49 -4.68,7.85l-1.08 -1.76c1.64,-0.68 3.32,-2.88 3.14,-4.69 -2.27,1.3 -4.81,0.44 -5.3,-2.18 -0.33,-1.8 1.12,-3.58 2.9,-3.91zm9.11 0c1.78,-0.33 3.27,0.39 4.17,1.66 0.62,0.87 0.74,2.14 0.84,3.04 0.35,2.95 -2.37,6.49 -4.68,7.85l-1.08 -1.76c1.64,-0.68 3.32,-2.88 3.15,-4.69 -2.27,1.3 -4.81,0.44 -5.3,-2.18 -0.33,-1.8 1.12,-3.58 2.9,-3.91z"/>
 </g>
</svg>
