<?xml version="1.0" encoding="UTF-8"?>
<!DOCTYPE svg PUBLIC "-//W3C//DTD SVG 1.1//EN" "http://www.w3.org/Graphics/SVG/1.1/DTD/svg11.dtd">
<!-- Creator: CorelDRAW 2021 (64-Bit) -->
<svg xmlns="http://www.w3.org/2000/svg" xml:space="preserve" width="2.8787mm" height="2.8825mm" version="1.1" style="shape-rendering:geometricPrecision; text-rendering:geometricPrecision; image-rendering:optimizeQuality; fill-rule:evenodd; clip-rule:evenodd"
viewBox="0 0 15.36 15.38"
 xmlns:xlink="http://www.w3.org/1999/xlink"
 xmlns:xodm="http://www.corel.com/coreldraw/odm/2003">
 <defs>
  <style type="text/css">
   <![CDATA[
    .fil0 {fill:#FFA5BA}
   ]]>
  </style>
 </defs>
 <g id="Слой_x0020_1">
  <metadata id="CorelCorpID_0Corel-Layer"/>
  <path class="fil0" d="M15.25 8.96c0.77,-4.56 -2.52,-8.2 -6.25,-8.84 -4.64,-0.8 -8.26,2.53 -8.88,6.3 -0.76,4.61 2.51,8.21 6.34,8.85 4.61,0.77 8.16,-2.55 8.8,-6.3zm-12.62 -1.82c-0.19,0.16 -0.17,0.32 0.2,0.46l2.08 0.64 5.07 -2.87 -3.93 3.42 0.08 2.11 1.18 -1.14 2.62 1.61 1.73 -6.89c0.04,-0.31 -0.04,-0.49 -0.3,-0.46 -2.92,1.04 -5.83,2.09 -8.75,3.13z"/>
 </g>
</svg>
