<svg xmlns="http://www.w3.org/2000/svg" xml:space="preserve" width="94" height="94" style="shape-rendering:geometricPrecision;text-rendering:geometricPrecision;image-rendering:optimizeQuality;fill-rule:evenodd;clip-rule:evenodd" viewBox="0 0 254.41 254.41"><path d="M127.2 0c70.25 0 127.2 56.95 127.2 127.2s-56.95 127.2-127.2 127.2S0 197.45 0 127.2 56.95 0 127.2 0z" style="fill:#fefefe"/><path d="M150.73 118.79c-4.09.52-54.58.13-63.28.13-8.87 0-13.28-1.5-13.27 8.29.01 9.39 4.5 8.29 12.86 8.29l63.94.01c-1 1.8-16.64 16.85-19.43 19.62-3.52 3.49-7.46 6.63-2.05 12.08 4.69 4.72 7.31 6.07 12.7.64l29.42-29.41c2.12-2.12 8.62-7.32 8.62-11.22 0-3.89-6.29-8.91-8.41-11.02l-29.42-29.41c-5.01-5.04-7.51-4.93-12.48.04-5.45 5.46-2.84 8.27 1.28 12.4l19.53 19.57z" style="fill:#d21440"/></svg>