<svg xmlns="http://www.w3.org/2000/svg" xml:space="preserve" width="134" height="134" style="shape-rendering:geometricPrecision;text-rendering:geometricPrecision;image-rendering:optimizeQuality;fill-rule:evenodd;clip-rule:evenodd" viewBox="0 0 593.26 593.26"><circle cx="296.63" cy="296.63" r="296.63" style="fill:#d21440"/><path d="M422.64 140.92c28.01 23.59 47.5 55.26 47.5 93.22v53.52c18.45 8.84 31.24 27.71 31.24 49.49s-12.79 40.65-31.24 49.48v53.27c0 28.37-11.07 55.35-30.73 75.39-12.2 12.44-27.03 21.51-43.18 26.6v35.32l-32.9 8.52-.86-39.1-66.62-.01-65.65.01 1.23 39.44-34.99-7.76V541.7c-15.91-5.12-30.52-14.12-42.57-26.41-19.66-20.04-30.73-47.02-30.73-75.39v-52.74c-19.08-8.59-32.4-27.79-32.4-50.02 0-22.23 13.32-41.43 32.4-50.03v-52.98c0-37.96 19.49-69.62 47.5-93.22 72.32-60.92 179.75-60.85 251.98 0zM123.15 341.16v-8.04c1.91-10.63 11.26-18.76 22.43-18.76h300.98c12.53 0 22.79 10.25 22.79 22.79 0 12.53-10.25 22.78-22.79 22.78h-86.37v57.03c0 9.61-7.87 17.49-17.48 17.49s-17.49-7.87-17.49-17.49v-57.03H145.58c-11.16 0-20.51-8.13-22.43-18.76zm269.08 50.81v24.99c0 27.31-22.23 49.53-49.53 49.53-27.31 0-49.53-22.22-49.53-49.53v-24.99H157.74v47.93c0 19.01 7.43 37.02 20.6 50.45 13.17 13.43 30.83 21 49.47 21h137.66c18.64 0 36.31-7.58 49.47-21 13.17-13.43 20.6-31.44 20.6-50.45v-47.93h-43.32zM157.74 282.31h277.81v-48.17c0-7.13-1.04-13.92-2.94-20.36-11.77 10.92-28.63 19.23-43.22 24.68-28.14 10.52-61.23 14.49-91.31 14.49-30.09 0-63.17-3.98-91.32-14.49-16.95-6.33-33.65-16.03-44.44-29.57-2.92 7.86-4.57 16.28-4.57 25.24v48.17zm140.57-67.65c-27 .07-137.07-20.04-105.63-46.54 60.58-51.07 147.35-51.03 207.92 0 39.37 33.17-73.96 46.47-102.29 46.54z" style="fill:#fefefe"/></svg>