<svg xmlns="http://www.w3.org/2000/svg" xml:space="preserve" width="527.792" height="134" style="shape-rendering:geometricPrecision;text-rendering:geometricPrecision;image-rendering:optimizeQuality;fill-rule:evenodd;clip-rule:evenodd" viewBox="0 0 13236.75 3360.66"><path d="M5096.39 2249.5c0 12.28-34.02 22.03-102.05 29.28a1932.47 1932.47 0 0 1-204.93 10.87c-68.59 0-112.36-3.07-131.32-9.2-18.96-6.13-28.44-16.45-28.44-30.95V1208.96c0-24.54 32.34-48.8 97.03-72.77 64.68-23.98 137.18-35.97 217.47-35.97 71.38 0 118.22 15.05 140.52 45.17 7.81 11.16 11.72 22.3 11.72 33.46v1070.66zm971.95 27.6c-44.61 10.6-90.06 17.85-136.34 21.75-46.29 3.9-91.45 5.85-135.5 5.85-44.06 0-78.07-1.11-102.05-3.35-23.98-2.23-55.49-7.8-94.52-16.72-39.03-8.93-74.72-21.19-107.06-36.81-32.34-15.61-66.64-38.47-102.88-68.59-36.25-30.11-66.64-65.8-91.17-107.06-56.88-95.92-85.32-219.71-85.32-371.39 0-101.49 15.89-191.26 47.68-269.33 31.78-78.07 70.26-138.3 115.42-180.68 45.17-42.38 96.75-76.4 154.74-102.05 93.69-42.38 187.93-63.57 282.73-63.57 136.06 0 233.64 11.15 292.75 33.45 26.77 10.04 50.75 25.66 71.94 46.84 21.19 21.19 31.78 51.86 31.78 92.01 0 40.15-9.75 90.89-29.27 152.23-19.52 61.35-47.68 92.01-84.49 92.01-11.15 0-52.42-8.92-123.79-26.77-71.38-17.84-119.89-26.76-145.54-26.76-39.03 0-72.22 21.74-99.54 65.24-27.33 43.49-40.99 105.39-40.99 185.69s11.99 142.75 35.96 187.36c23.98 44.62 55.49 66.92 94.52 66.92 27.88 0 78.34-11.43 151.4-34.29 73.05-22.86 115.71-34.29 127.97-34.29 34.58 0 61.62 31.78 81.14 95.36 19.52 63.57 29.28 114.87 29.28 153.91 0 39.03-11.99 69.98-35.97 92.85-23.98 22.86-58.28 39.59-102.88 50.18zm1107.46 12.55h-709.31c-54.65 0-91.45-3.91-110.41-11.71-18.96-7.81-28.44-20.08-28.44-36.81V1182.18c0-29 13.1-49.63 39.31-61.9 26.21-12.27 73.33-18.4 141.36-18.4h672.51c23.42 0 35.14 38.75 35.14 116.26 0 77.52-5.02 136.63-15.06 177.33-10.04 40.71-23.42 61.06-40.14 61.06-72.49 0-194.62-7.25-366.37-21.74v112.08c165.06-6.69 272.68-10.04 322.87-10.04 30.11 0 45.17 35.14 45.17 105.4 0 70.27-5.86 123.52-17.56 159.77-11.72 36.25-27.6 54.37-47.68 54.37l-302.79-6.69v107.06c194.05-14.5 327.88-21.74 401.5-21.74 23.42 0 35.13 39.03 35.13 117.1s-5.01 137.18-15.05 177.32c-10.04 40.15-23.42 60.23-40.15 60.23zm1010.44-12.55c-44.61 10.6-90.06 17.85-136.34 21.75-46.29 3.9-91.45 5.85-135.5 5.85-44.06 0-78.07-1.11-102.05-3.35-23.98-2.23-55.49-7.8-94.52-16.72-39.03-8.93-74.72-21.19-107.06-36.81-32.34-15.61-66.64-38.47-102.88-68.59-36.25-30.11-66.64-65.8-91.17-107.06-56.88-95.92-85.32-219.71-85.32-371.39 0-101.49 15.89-191.26 47.68-269.33 31.78-78.07 70.26-138.3 115.42-180.68 45.17-42.38 96.75-76.4 154.74-102.05 93.69-42.38 187.93-63.57 282.73-63.57 136.06 0 233.64 11.15 292.75 33.45 26.77 10.04 50.75 25.66 71.94 46.84 21.19 21.19 31.78 51.86 31.78 92.01 0 40.15-9.75 90.89-29.27 152.23-19.52 61.35-47.68 92.01-84.49 92.01-11.15 0-52.42-8.92-123.79-26.77-71.38-17.84-119.89-26.76-145.54-26.76-39.03 0-72.22 21.74-99.54 65.24-27.33 43.49-40.99 105.39-40.99 185.69s11.99 142.75 35.96 187.36c23.98 44.62 55.49 66.92 94.52 66.92 27.88 0 78.34-11.43 151.4-34.29 73.05-22.86 115.71-34.29 127.97-34.29 34.58 0 61.62 31.78 81.14 95.36 19.52 63.57 29.28 114.87 29.28 153.91 0 39.03-11.99 69.98-35.97 92.85-23.98 22.86-58.28 39.59-102.88 50.18zm727.71-35.96c0 14.49-34.01 26.21-102.05 35.13a1574.49 1574.49 0 0 1-204.92 13.38c-68.59 0-112.65-3.91-132.16-11.71-19.52-7.81-29.27-20.08-29.27-36.81V1165.45c0-29 36.52-49.63 109.57-61.9 73.05-12.27 165.34-18.4 276.87-18.4s183.75.27 216.64.83c32.9.56 71.66 2.51 116.27 5.86 44.62 3.35 80.02 8.92 106.23 16.72 26.21 7.81 55.2 17.85 87 30.11 31.78 12.28 56.6 28.16 74.44 47.68 17.85 19.52 35.14 42.66 51.87 69.42 30.1 47.96 45.17 116.27 45.17 204.93 0 88.67-14.78 163.39-44.33 224.18-29.56 60.78-68.87 106.78-117.95 138.01 128.26 201.86 192.39 330.12 192.39 384.77 0 54.65-109.86 81.97-329.57 81.97-63.57 0-107.62-2.79-132.15-8.36-24.54-5.58-40.15-17.85-46.84-36.81l-108.74-344.62-28.44-1.67v342.95zm0-600.57h43.5c64.68 0 97.03-50.19 97.03-150.56 0-51.31-8.64-87.55-25.92-108.74-17.29-21.19-37.09-31.78-59.39-31.78h-55.2v291.09zm1577.55 649.08h-709.31c-54.65 0-91.45-3.91-110.41-11.71-18.96-7.81-28.44-20.08-28.44-36.81V1182.18c0-29 13.1-49.63 39.31-61.9 26.21-12.27 73.33-18.4 141.36-18.4h672.51c23.42 0 35.14 38.75 35.14 116.26 0 77.52-5.02 136.63-15.06 177.33-10.04 40.71-23.42 61.06-40.14 61.06-72.49 0-194.62-7.25-366.37-21.74v112.08c165.06-6.69 272.68-10.04 322.87-10.04 30.11 0 45.17 35.14 45.17 105.4 0 70.27-5.86 123.52-17.56 159.77-11.72 36.25-27.6 54.37-47.68 54.37l-302.79-6.69v107.06c194.05-14.5 327.88-21.74 401.5-21.74 23.42 0 35.13 39.03 35.13 117.1s-5.01 137.18-15.05 177.32c-10.04 40.15-23.42 60.23-40.15 60.23zm634.03-85.32c-2.23 32.34-19.23 54.65-51.02 66.92-31.78 12.27-88.94 18.4-171.47 18.4-82.52 0-151.4-7.53-206.6-22.59-55.2-15.05-82.81-34.29-82.81-57.71 0-26.77 49.63-197.68 148.88-512.75 99.26-315.07 156.15-496.58 170.64-544.53 5.57-14.49 50.47-26.48 134.67-35.96 84.21-9.48 174.54-14.22 271.01-14.22 96.48 0 149.73 16.72 159.77 50.18 210.79 700.39 316.18 1056.16 316.18 1067.32 0 11.15-6.69 22.3-20.08 33.45-31.22 24.54-93.12 36.81-185.69 36.81-197.4 0-298.33-23.42-302.79-70.26l-11.72-108.74h-160.59l-8.37 93.68zm133.83-411.53-25.09-301.12h-36.81l-28.44 301.12h90.33zm896.68 496.85h-121.29c-52.97 0-88.94-3.91-107.9-11.71-18.96-7.81-28.44-20.08-28.44-36.81v-1055.6c0-25.65 34.29-46.01 102.88-61.06 68.59-15.05 141.92-22.58 219.99-22.58 78.07 0 133.83 10.03 167.29 30.1 33.45 20.08 52.97 41.27 58.55 63.57l113.76 441.65h15.05l107.06-421.57c7.81-30.11 44.33-56.6 109.58-79.46 65.24-22.86 136.9-34.29 214.97-34.29s135.78 6.13 173.15 18.4c37.36 12.27 56.04 27.88 56.04 46.84v1074c0 14.49-31.78 26.21-95.36 35.13-63.57 8.92-141.08 13.38-232.54 13.38-91.45 0-137.18-16.17-137.18-48.51 0-88.11 9.48-244.8 28.45-470.09h-15.06l-86.99 436.63c-3.35 16.73-17.01 29-40.99 36.81-23.98 7.8-59.94 11.71-107.91 11.71-47.95 0-77.23-3.35-87.82-10.04-10.6-6.69-17.56-19.52-20.91-38.47l-90.34-436.63h-15.05c20.08 229.74 30.11 386.43 30.11 470.09 0 29-69.71 45.17-209.11 48.51z" style="fill:#d21440;fill-rule:nonzero"/><path d="M1680.33 0c928.02 0 1680.33 752.31 1680.33 1680.33s-752.31 1680.33-1680.33 1680.33S0 2608.35 0 1680.33 752.31 0 1680.33 0z" style="fill:#d21440"/><path d="M2394.16 798.3c158.67 133.65 269.1 313.01 269.1 528.05v303.15c104.54 50.06 176.98 156.94 176.98 280.33 0 123.38-72.43 230.25-176.98 280.32v301.78c0 160.7-62.73 313.53-174.08 427.07-69.13 70.49-153.11 121.87-244.58 150.7v200.05l-186.37 48.24-4.85-221.48-377.36-.04-371.89.04 6.97 223.45-198.19-43.93v-207.41c-90.14-29.02-172.89-80-241.16-149.61-111.35-113.54-174.08-266.38-174.08-427.07V2193.2c-108.06-48.67-183.54-157.42-183.54-283.35 0-125.96 75.47-234.72 183.54-283.39v-300.1c0-215.04 110.43-394.4 269.1-528.05 409.65-345.09 1018.22-344.72 1427.42 0zM697.64 1932.61v-45.56c10.83-60.23 63.81-106.3 127.05-106.3h1704.96c71 0 129.07 58.08 129.07 129.07v.01c0 70.99-58.08 129.06-129.07 129.06H2040.4v323.08c0 54.45-44.6 99.06-99.04 99.06h-.01c-54.46 0-99.05-44.58-99.05-99.06v-323.08H824.7c-63.23 0-116.21-46.07-127.05-106.3zm1524.29 287.81v141.57c0 154.68-125.91 280.57-280.57 280.57-154.68 0-280.58-125.9-280.58-280.57v-141.57H893.61v271.51c0 107.67 42.1 209.72 116.68 285.78 74.59 76.06 174.66 118.98 280.25 118.98h779.83c105.59 0 205.66-42.92 280.25-118.98s116.68-178.11 116.68-285.78v-271.51h-245.37zM893.6 1599.24h1573.7v-272.89c0-40.4-5.91-78.85-16.67-115.32-66.66 61.83-162.19 108.94-244.84 139.82-159.43 59.57-346.85 82.09-517.27 82.09-170.43 0-357.87-22.52-517.28-82.09-96-35.87-190.6-90.81-251.75-167.5-16.55 44.54-25.89 92.24-25.89 143v272.89zM1689.89 1216c-152.94.41-776.44-113.51-598.34-263.65 343.14-289.28 834.67-289.08 1177.81 0 223.01 187.9-418.94 263.23-579.46 263.65z" style="fill:#fefefe"/></svg>