<svg aria-hidden="true" style="position: absolute; width: 0; height: 0; overflow: hidden;" version="1.1" xmlns="http://www.w3.org/2000/svg" xmlns:xlink="http://www.w3.org/1999/xlink">
<defs>
<symbol id="icon-logo-full" viewBox="0 0 126 32">
<path d="M48.528 21.42c0 0.117-0.324 0.21-0.972 0.279-0.585 0.066-1.262 0.104-1.949 0.104-0.001 0-0.002 0-0.002 0h0c-0.653 0-1.070-0.029-1.25-0.088s-0.271-0.157-0.271-0.295v-9.908c0-0.234 0.308-0.465 0.924-0.693s1.306-0.342 2.071-0.342c0.68 0 1.126 0.143 1.338 0.43 0.074 0.106 0.112 0.212 0.112 0.319v10.195zM57.783 21.682c-0.425 0.101-0.858 0.17-1.298 0.207s-0.871 0.056-1.29 0.056c-0.42 0-0.743-0.011-0.972-0.032s-0.528-0.074-0.9-0.159c-0.372-0.085-0.711-0.202-1.019-0.351s-0.635-0.366-0.98-0.653c-0.345-0.287-0.635-0.627-0.868-1.019-0.542-0.913-0.812-2.092-0.812-3.536 0-0.966 0.151-1.821 0.454-2.565s0.669-1.317 1.099-1.72c0.43-0.404 0.921-0.727 1.473-0.972 0.892-0.404 1.789-0.605 2.692-0.605 1.296 0 2.225 0.106 2.788 0.319 0.255 0.096 0.483 0.244 0.685 0.446s0.303 0.494 0.303 0.876-0.093 0.865-0.279 1.45c-0.186 0.584-0.454 0.876-0.804 0.876-0.106 0-0.499-0.085-1.179-0.255s-1.142-0.255-1.386-0.255c-0.372 0-0.688 0.207-0.948 0.621s-0.39 1.004-0.39 1.768 0.114 1.359 0.342 1.784c0.228 0.425 0.528 0.637 0.9 0.637 0.265 0 0.746-0.109 1.442-0.326s1.102-0.326 1.219-0.326c0.329 0 0.587 0.303 0.773 0.908s0.279 1.094 0.279 1.466c0 0.372-0.114 0.666-0.343 0.884s-0.555 0.377-0.98 0.478zM68.328 21.802h-6.754c-0.52 0-0.871-0.037-1.051-0.111s-0.271-0.191-0.271-0.351v-10.083c0-0.276 0.125-0.473 0.374-0.589s0.698-0.175 1.346-0.175h6.404c0.223 0 0.335 0.369 0.335 1.107s-0.048 1.301-0.143 1.689c-0.096 0.388-0.223 0.581-0.382 0.581-0.69 0-1.853-0.069-3.489-0.207v1.067c1.572-0.064 2.596-0.096 3.074-0.096 0.287 0 0.43 0.335 0.43 1.004s-0.056 1.176-0.167 1.521c-0.112 0.345-0.263 0.518-0.454 0.518l-2.883-0.064v1.019c1.848-0.138 3.122-0.207 3.823-0.207 0.223 0 0.335 0.372 0.335 1.115s-0.048 1.306-0.143 1.688c-0.096 0.382-0.223 0.573-0.382 0.573zM77.949 21.682c-0.425 0.101-0.858 0.17-1.298 0.207s-0.871 0.056-1.29 0.056c-0.42 0-0.743-0.011-0.972-0.032s-0.528-0.074-0.9-0.159c-0.372-0.085-0.711-0.202-1.019-0.351s-0.635-0.366-0.98-0.653c-0.345-0.287-0.635-0.627-0.868-1.019-0.542-0.913-0.812-2.092-0.812-3.536 0-0.966 0.151-1.821 0.454-2.565s0.669-1.317 1.099-1.72c0.43-0.404 0.921-0.727 1.473-0.972 0.892-0.404 1.789-0.605 2.692-0.605 1.296 0 2.225 0.106 2.788 0.319 0.255 0.096 0.483 0.244 0.685 0.446s0.303 0.494 0.303 0.876-0.093 0.865-0.279 1.45c-0.186 0.584-0.454 0.876-0.805 0.876-0.106 0-0.499-0.085-1.179-0.255s-1.142-0.255-1.386-0.255c-0.372 0-0.688 0.207-0.948 0.621s-0.39 1.004-0.39 1.768 0.114 1.359 0.342 1.784c0.228 0.425 0.528 0.637 0.9 0.637 0.265 0 0.746-0.109 1.442-0.326s1.102-0.326 1.219-0.326c0.329 0 0.587 0.303 0.773 0.908s0.279 1.094 0.279 1.466c0 0.372-0.114 0.666-0.343 0.884s-0.555 0.377-0.98 0.478zM84.878 21.34c0 0.138-0.324 0.25-0.972 0.334-0.586 0.081-1.263 0.127-1.95 0.127-0 0-0.001 0-0.001 0h0c-0.653 0-1.073-0.037-1.258-0.111s-0.279-0.191-0.279-0.351v-10.243c0-0.276 0.348-0.473 1.043-0.589s1.574-0.175 2.636-0.175 1.75 0.003 2.063 0.008c0.313 0.005 0.682 0.024 1.107 0.056s0.762 0.085 1.012 0.159c0.25 0.074 0.526 0.17 0.828 0.287s0.539 0.268 0.709 0.454c0.17 0.186 0.335 0.406 0.494 0.661 0.287 0.457 0.43 1.107 0.43 1.951s-0.141 1.556-0.422 2.135c-0.281 0.579-0.656 1.017-1.123 1.314 1.221 1.922 1.832 3.143 1.832 3.664s-1.046 0.78-3.138 0.78c-0.605 0-1.025-0.027-1.258-0.080s-0.382-0.17-0.446-0.351l-1.035-3.281-0.271-0.016v3.266zM84.878 15.621h0.414c0.616 0 0.924-0.478 0.924-1.434 0-0.489-0.082-0.834-0.247-1.035s-0.353-0.303-0.566-0.303h-0.526v2.772zM99.9 21.802h-6.754c-0.52 0-0.871-0.037-1.051-0.111s-0.271-0.191-0.271-0.351v-10.083c0-0.276 0.125-0.473 0.374-0.589s0.698-0.175 1.346-0.175h6.404c0.223 0 0.335 0.369 0.335 1.107s-0.048 1.301-0.143 1.689c-0.096 0.388-0.223 0.581-0.382 0.581-0.69 0-1.853-0.069-3.489-0.207v1.067c1.572-0.064 2.596-0.096 3.074-0.096 0.287 0 0.43 0.335 0.43 1.004s-0.056 1.176-0.167 1.521c-0.112 0.345-0.263 0.518-0.454 0.518l-2.883-0.064v1.019c1.848-0.138 3.122-0.207 3.823-0.207 0.223 0 0.335 0.372 0.335 1.115s-0.048 1.306-0.143 1.688c-0.096 0.382-0.223 0.573-0.382 0.573zM105.937 20.989c-0.021 0.308-0.183 0.52-0.486 0.637s-0.847 0.175-1.633 0.175c-0.786 0-1.442-0.072-1.967-0.215s-0.788-0.326-0.788-0.549c0-0.255 0.473-1.882 1.418-4.882s1.487-4.728 1.625-5.185c0.053-0.138 0.481-0.252 1.282-0.342s1.662-0.135 2.581-0.135c0.919 0 1.426 0.159 1.521 0.478 2.007 6.669 3.011 10.057 3.011 10.163s-0.064 0.212-0.191 0.319c-0.297 0.234-0.887 0.351-1.768 0.351-1.88 0-2.841-0.223-2.883-0.669l-0.112-1.035h-1.529l-0.080 0.892zM107.211 17.071l-0.239-2.867h-0.35l-0.271 2.867h0.86zM115.749 21.802h-1.155c-0.504 0-0.847-0.037-1.027-0.111s-0.271-0.191-0.271-0.351v-10.051c0-0.244 0.326-0.438 0.98-0.581s1.351-0.215 2.095-0.215c0.743 0 1.274 0.095 1.593 0.287s0.504 0.393 0.558 0.605l1.083 4.205h0.143l1.019-4.014c0.074-0.287 0.422-0.539 1.043-0.757s1.304-0.326 2.047-0.326 1.293 0.058 1.649 0.175c0.356 0.117 0.534 0.265 0.534 0.446v10.227c0 0.138-0.303 0.25-0.908 0.334s-1.343 0.127-2.214 0.127c-0.871 0-1.306-0.154-1.306-0.462 0-0.839 0.090-2.331 0.271-4.476h-0.143l-0.828 4.158c-0.032 0.159-0.162 0.276-0.39 0.351s-0.571 0.111-1.028 0.111c-0.457 0-0.735-0.032-0.836-0.096s-0.167-0.186-0.199-0.366l-0.86-4.158h-0.143c0.191 2.188 0.287 3.68 0.287 4.476 0 0.276-0.664 0.43-1.991 0.462z"></path>
<path d="M16-0c8.837 0 16 7.163 16 16s-7.163 16-16 16-16-7.163-16-16 7.163-16 16-16z"></path>
<path d="M22.797 7.601c1.511 1.273 2.562 2.98 2.562 5.028v2.887c0.995 0.477 1.685 1.494 1.685 2.669s-0.69 2.192-1.685 2.669v2.874c0 1.53-0.597 2.985-1.658 4.067-0.658 0.671-1.458 1.16-2.329 1.435v1.905l-1.775 0.459-0.046-2.109h-7.134l0.066 2.128-1.887-0.418v-1.975c-0.858-0.276-1.646-0.762-2.296-1.425-1.060-1.081-1.658-2.536-1.658-4.067v-2.845c-1.029-0.463-1.748-1.499-1.748-2.698s0.719-2.235 1.748-2.698v-2.858c0-2.048 1.051-3.755 2.562-5.028 3.901-3.286 9.695-3.282 13.592 0zM6.643 18.402v-0.434c0.103-0.573 0.608-1.012 1.21-1.012h16.235c0.676 0 1.229 0.553 1.229 1.229v0c0 0.676-0.553 1.229-1.229 1.229h-4.659v3.076c0 0.518-0.425 0.943-0.943 0.943h-0c-0.519 0-0.943-0.424-0.943-0.943v-3.076h-9.69c-0.602 0-1.107-0.439-1.21-1.012zM21.157 21.143v1.348c0 1.473-1.199 2.672-2.672 2.672s-2.672-1.199-2.672-2.672v-1.348h-7.305v2.585c0 1.025 0.401 1.997 1.111 2.721s1.663 1.133 2.669 1.133h7.425c1.005 0 1.958-0.409 2.669-1.133s1.111-1.696 1.111-2.721v-2.585h-2.336zM8.509 15.228h14.985v-2.598c0-0.385-0.056-0.751-0.159-1.098-0.635 0.589-1.544 1.037-2.331 1.331-1.518 0.567-3.303 0.782-4.925 0.782s-3.408-0.214-4.926-0.782c-0.914-0.342-1.815-0.865-2.397-1.595-0.158 0.424-0.247 0.878-0.247 1.362v2.598zM16.091 11.579c-1.456 0.004-7.393-1.081-5.697-2.51 3.267-2.755 7.948-2.753 11.215 0 2.123 1.789-3.989 2.506-5.518 2.51z"></path>
</symbol>
<symbol id="icon-onepoint" viewBox="0 0 32 32">
<path d="M32 16c0 8.837-7.163 16-16 16s-16-7.163-16-16c0-8.837 7.163-16 16-16s16 7.163 16 16z"></path>
</symbol>
<symbol id="icon-one-point" viewBox="0 0 32 32">
<path d="M32 16c0 8.837-7.163 16-16 16s-16-7.163-16-16c0-8.837 7.163-16 16-16s16 7.163 16 16z"></path>
</symbol>
<symbol id="icon-pointspink" viewBox="0 0 256 32">
<path d="M144 16c0 8.837-7.163 16-16 16s-16-7.163-16-16c0-8.837 7.163-16 16-16s16 7.163 16 16z"></path>
<path d="M32 16c0 8.837-7.163 16-16 16s-16-7.163-16-16c0-8.837 7.163-16 16-16s16 7.163 16 16z"></path>
<path d="M256 16c0 8.837-7.163 16-16 16s-16-7.163-16-16c0-8.837 7.163-16 16-16s16 7.163 16 16z"></path>
</symbol>
<symbol id="icon-points-pink" viewBox="0 0 256 32">
<path d="M144 16c0 8.837-7.163 16-16 16s-16-7.163-16-16c0-8.837 7.163-16 16-16s16 7.163 16 16z"></path>
<path d="M32 16c0 8.837-7.163 16-16 16s-16-7.163-16-16c0-8.837 7.163-16 16-16s16 7.163 16 16z"></path>
<path d="M256 16c0 8.837-7.163 16-16 16s-16-7.163-16-16c0-8.837 7.163-16 16-16s16 7.163 16 16z"></path>
</symbol>
<symbol id="icon-pointswhite" viewBox="0 0 139 32">
<path d="M85.333 16c0 8.837-7.163 16-16 16s-16-7.163-16-16c0-8.837 7.163-16 16-16s16 7.163 16 16z"></path>
<path d="M32 16c0 8.837-7.163 16-16 16s-16-7.163-16-16c0-8.837 7.163-16 16-16s16 7.163 16 16z"></path>
<path d="M138.667 16c0 8.837-7.163 16-16 16s-16-7.163-16-16c0-8.837 7.163-16 16-16s16 7.163 16 16z"></path>
</symbol>
<symbol id="icon-points-white" viewBox="0 0 139 32">
<path d="M85.333 16c0 8.837-7.163 16-16 16s-16-7.163-16-16c0-8.837 7.163-16 16-16s16 7.163 16 16z"></path>
<path d="M32 16c0 8.837-7.163 16-16 16s-16-7.163-16-16c0-8.837 7.163-16 16-16s16 7.163 16 16z"></path>
<path d="M138.667 16c0 8.837-7.163 16-16 16s-16-7.163-16-16c0-8.837 7.163-16 16-16s16 7.163 16 16z"></path>
</symbol>
<symbol id="icon-telegram" viewBox="0 0 32 32">
<path d="M32 16c0 8.837-7.163 16-16 16s-16-7.163-16-16c0-8.837 7.163-16 16-16s16 7.163 16 16z"></path>
<path d="M12.867 18.376l-0.317 4.169c0.455 0 0.651-0.183 0.888-0.401l2.13-1.901 4.414 3.018c0.809 0.421 1.381 0.199 1.6-0.696l2.897-12.673c0.258-1.117-0.433-1.554-1.221-1.28l-17.032 6.086c-1.162 0.422-1.145 1.026-0.198 1.301l4.355 1.264 10.114-5.907c0.476-0.295 0.909-0.132 0.553 0.163l-8.182 6.856z"></path>
</symbol>
<symbol id="icon-home" viewBox="0 0 35 32">
<path d="M34.253 15.613c0.257-0.279 0.414-0.654 0.414-1.064 0-0.475-0.21-0.901-0.543-1.19l-0.002-0.002-14.773-12.925c-0.318-0.269-0.732-0.432-1.184-0.432-0.467 0-0.893 0.174-1.217 0.46l0.002-0.002-14.821 13.589c-0.316 0.288-0.513 0.701-0.513 1.16 0 0.424 0.168 0.809 0.442 1.091l-0-0 0.373 0.387c0.613 0.64 1.611 0.72 2.224 0.171l1.107-0.992v14.523c0 0.893 0.72 1.613 1.613 1.613h5.773c0.891 0 1.613-0.72 1.613-1.613v-10.16h7.373v10.16c-0.013 0.891 0.624 1.613 1.515 1.613h6.123c0.891 0 1.611-0.72 1.611-1.613v-14.32l0.685 0.603c0.376 0.331 1.168 0.064 1.765-0.595l0.421-0.461z"></path>
</symbol>
<symbol id="icon-icon1" viewBox="0 0 21 32">
<path d="M0 0h21.12v32h-21.12z"></path>
</symbol>
<symbol id="icon-icon2" viewBox="0 0 32 32">
<path d="M0 0h32v32h-32z"></path>
</symbol>
<symbol id="icon-icon3" viewBox="0 0 28 32">
<path d="M0 0h28.16v32h-28.16z"></path>
</symbol>
<symbol id="icon-icon-comment" viewBox="0 0 43 32">
<path d="M32.014 0c1.929 0 3.75 0.52 5.464 1.561s3.107 2.537 4.179 4.488c1.029 1.951 1.543 4.249 1.543 6.894s-0.643 5.225-1.929 7.74c-0.429 0.911-1.2 2.081-2.314 3.512-1.157 1.431-2.229 2.667-3.214 3.707l-4.050 4.098-2.893-4.813c2.014-1.257 3.793-2.818 5.336-4.683 1.543-1.821 2.314-3.491 2.314-5.008 0-0.78-0.171-1.409-0.514-1.886-1.5 1.084-3.171 1.626-5.014 1.626-1.329 0-2.593-0.412-3.793-1.236-1.243-0.78-2.229-1.821-2.957-3.122-0.771-1.258-1.157-2.558-1.157-3.902 0-1.518 0.45-2.97 1.35-4.358 0.857-1.388 1.993-2.515 3.407-3.382 1.371-0.824 2.786-1.236 4.243-1.236zM8.936 0c1.929 0 3.75 0.52 5.464 1.561s3.107 2.537 4.179 4.488c1.029 1.951 1.543 4.249 1.543 6.894 0 1.864-0.236 3.534-0.707 5.008-0.471 1.518-1.286 3.1-2.443 4.748-1.114 1.561-2.164 2.862-3.15 3.902-0.986 1.084-2.7 2.884-5.143 5.398l-2.893-4.813c2.014-1.257 3.793-2.818 5.336-4.683 1.543-1.821 2.314-3.491 2.314-5.008 0-0.78-0.171-1.409-0.514-1.886-1.5 1.084-3.171 1.626-5.014 1.626-1.329 0-2.593-0.412-3.793-1.236-1.243-0.78-2.229-1.821-2.957-3.122-0.771-1.258-1.157-2.558-1.157-3.902 0-1.518 0.429-2.97 1.286-4.358s1.993-2.515 3.407-3.382c1.371-0.824 2.786-1.236 4.243-1.236z"></path>
</symbol>
<symbol id="icon-icons" viewBox="0 0 32 32">
<path d="M32.014 0c1.929 0 3.75 0.52 5.464 1.561s3.107 2.537 4.179 4.488c1.029 1.951 1.543 4.249 1.543 6.894s-0.643 5.225-1.929 7.74c-0.429 0.911-1.2 2.081-2.314 3.512-1.157 1.431-2.229 2.667-3.214 3.707l-4.050 4.098-2.893-4.813c2.014-1.257 3.793-2.818 5.336-4.683 1.543-1.821 2.314-3.491 2.314-5.008 0-0.78-0.171-1.409-0.514-1.886-1.5 1.084-3.171 1.626-5.014 1.626-1.329 0-2.593-0.412-3.793-1.236-1.243-0.78-2.229-1.821-2.957-3.122-0.771-1.258-1.157-2.558-1.157-3.902 0-1.518 0.45-2.97 1.35-4.358 0.857-1.388 1.993-2.515 3.407-3.382 1.371-0.824 2.786-1.236 4.243-1.236zM8.936 0c1.929 0 3.75 0.52 5.464 1.561s3.107 2.537 4.179 4.488c1.029 1.951 1.543 4.249 1.543 6.894 0 1.864-0.236 3.534-0.707 5.008-0.471 1.518-1.286 3.1-2.443 4.748-1.114 1.561-2.164 2.862-3.15 3.902-0.986 1.084-2.7 2.884-5.143 5.398l-2.893-4.813c2.014-1.257 3.793-2.818 5.336-4.683 1.543-1.821 2.314-3.491 2.314-5.008 0-0.78-0.171-1.409-0.514-1.886-1.5 1.084-3.171 1.626-5.014 1.626-1.329 0-2.593-0.412-3.793-1.236-1.243-0.78-2.229-1.821-2.957-3.122-0.771-1.258-1.157-2.558-1.157-3.902 0-1.518 0.429-2.97 1.286-4.358s1.993-2.515 3.407-3.382c1.371-0.824 2.786-1.236 4.243-1.236z"></path>
</symbol>
<symbol id="icon-logo" viewBox="0 0 32 32">
<path d="M32 16c0 8.837-7.163 16-16 16s-16-7.163-16-16c0-8.837 7.163-16 16-16s16 7.163 16 16z"></path>
<path d="M22.797 7.601c1.511 1.272 2.562 2.981 2.562 5.028v2.887c0.995 0.477 1.685 1.495 1.685 2.669s-0.69 2.193-1.685 2.669v2.873c0 1.53-0.597 2.986-1.658 4.066-0.658 0.671-1.458 1.16-2.329 1.435v1.905l-1.775 0.46-0.046-2.109h-7.135l0.066 2.127-1.887-0.419v-1.975c-0.858-0.276-1.646-0.762-2.296-1.425-1.060-1.081-1.658-2.536-1.658-4.066v-2.845c-1.029-0.463-1.748-1.499-1.748-2.698s0.718-2.235 1.748-2.699v-2.858c0-2.048 1.051-3.755 2.562-5.028 3.901-3.286 9.696-3.282 13.592 0zM6.643 18.402v-0.434c0.103-0.573 0.607-1.012 1.21-1.012h16.235c0.676 0 1.229 0.553 1.229 1.229s-0.553 1.229-1.229 1.229h-4.659v3.076c0 0.518-0.424 0.943-0.943 0.943s-0.943-0.424-0.943-0.943v-3.076h-9.69c-0.602 0-1.106-0.439-1.21-1.012zM21.157 21.143v1.348c0 1.473-1.199 2.672-2.672 2.672s-2.672-1.199-2.672-2.672v-1.348h-7.305v2.585c0 1.025 0.401 1.997 1.111 2.721s1.663 1.133 2.668 1.133h7.425c1.005 0 1.959-0.409 2.668-1.133s1.111-1.696 1.111-2.721v-2.585h-2.337zM8.508 15.228h14.985v-2.598c0-0.385-0.056-0.751-0.159-1.098-0.635 0.589-1.544 1.037-2.331 1.331-1.518 0.567-3.303 0.782-4.925 0.782s-3.407-0.215-4.926-0.782c-0.914-0.341-1.815-0.865-2.397-1.595-0.158 0.424-0.246 0.878-0.246 1.361v2.598zM16.091 11.579c-1.456 0.004-7.393-1.081-5.698-2.51 3.268-2.755 7.948-2.753 11.215 0 2.124 1.789-3.989 2.507-5.517 2.51z"></path>
</symbol>
<symbol id="icon-logofull" viewBox="0 0 126 32">
<path d="M48.528 21.42c0 0.117-0.324 0.21-0.972 0.279-0.585 0.066-1.262 0.104-1.949 0.104-0.001 0-0.002 0-0.002 0h0c-0.653 0-1.070-0.029-1.25-0.088s-0.271-0.157-0.271-0.295v-9.908c0-0.234 0.308-0.465 0.924-0.693s1.306-0.342 2.071-0.342c0.68 0 1.126 0.143 1.338 0.43 0.074 0.106 0.112 0.212 0.112 0.319v10.195zM57.783 21.682c-0.425 0.101-0.858 0.17-1.298 0.207s-0.871 0.056-1.29 0.056c-0.42 0-0.743-0.011-0.972-0.032s-0.528-0.074-0.9-0.159c-0.372-0.085-0.711-0.202-1.019-0.351s-0.635-0.366-0.98-0.653c-0.345-0.287-0.635-0.627-0.868-1.019-0.542-0.913-0.812-2.092-0.812-3.536 0-0.966 0.151-1.821 0.454-2.565s0.669-1.317 1.099-1.72c0.43-0.404 0.921-0.727 1.473-0.972 0.892-0.404 1.789-0.605 2.692-0.605 1.296 0 2.225 0.106 2.788 0.319 0.255 0.096 0.483 0.244 0.685 0.446s0.303 0.494 0.303 0.876-0.093 0.865-0.279 1.45c-0.186 0.584-0.454 0.876-0.804 0.876-0.106 0-0.499-0.085-1.179-0.255s-1.142-0.255-1.386-0.255c-0.372 0-0.688 0.207-0.948 0.621s-0.39 1.004-0.39 1.768 0.114 1.359 0.342 1.784c0.228 0.425 0.528 0.637 0.9 0.637 0.265 0 0.746-0.109 1.442-0.326s1.102-0.326 1.219-0.326c0.329 0 0.587 0.303 0.773 0.908s0.279 1.094 0.279 1.466c0 0.372-0.114 0.666-0.343 0.884s-0.555 0.377-0.98 0.478zM68.328 21.802h-6.754c-0.52 0-0.871-0.037-1.051-0.111s-0.271-0.191-0.271-0.351v-10.083c0-0.276 0.125-0.473 0.374-0.589s0.698-0.175 1.346-0.175h6.404c0.223 0 0.335 0.369 0.335 1.107s-0.048 1.301-0.143 1.689c-0.096 0.388-0.223 0.581-0.382 0.581-0.69 0-1.853-0.069-3.489-0.207v1.067c1.572-0.064 2.596-0.096 3.074-0.096 0.287 0 0.43 0.335 0.43 1.004s-0.056 1.176-0.167 1.521c-0.112 0.345-0.263 0.518-0.454 0.518l-2.883-0.064v1.019c1.848-0.138 3.122-0.207 3.823-0.207 0.223 0 0.335 0.372 0.335 1.115s-0.048 1.306-0.143 1.688c-0.096 0.382-0.223 0.573-0.382 0.573zM77.949 21.682c-0.425 0.101-0.858 0.17-1.298 0.207s-0.871 0.056-1.29 0.056c-0.42 0-0.743-0.011-0.972-0.032s-0.528-0.074-0.9-0.159c-0.372-0.085-0.711-0.202-1.019-0.351s-0.635-0.366-0.98-0.653c-0.345-0.287-0.635-0.627-0.868-1.019-0.542-0.913-0.812-2.092-0.812-3.536 0-0.966 0.151-1.821 0.454-2.565s0.669-1.317 1.099-1.72c0.43-0.404 0.921-0.727 1.473-0.972 0.892-0.404 1.789-0.605 2.692-0.605 1.296 0 2.225 0.106 2.788 0.319 0.255 0.096 0.483 0.244 0.685 0.446s0.303 0.494 0.303 0.876-0.093 0.865-0.279 1.45c-0.186 0.584-0.454 0.876-0.805 0.876-0.106 0-0.499-0.085-1.179-0.255s-1.142-0.255-1.386-0.255c-0.372 0-0.688 0.207-0.948 0.621s-0.39 1.004-0.39 1.768 0.114 1.359 0.342 1.784c0.228 0.425 0.528 0.637 0.9 0.637 0.265 0 0.746-0.109 1.442-0.326s1.102-0.326 1.219-0.326c0.329 0 0.587 0.303 0.773 0.908s0.279 1.094 0.279 1.466c0 0.372-0.114 0.666-0.343 0.884s-0.555 0.377-0.98 0.478zM84.878 21.34c0 0.138-0.324 0.25-0.972 0.334-0.586 0.081-1.263 0.127-1.95 0.127-0 0-0.001 0-0.001 0h0c-0.653 0-1.073-0.037-1.258-0.111s-0.279-0.191-0.279-0.351v-10.243c0-0.276 0.348-0.473 1.043-0.589s1.574-0.175 2.636-0.175 1.75 0.003 2.063 0.008c0.313 0.005 0.682 0.024 1.107 0.056s0.762 0.085 1.012 0.159c0.25 0.074 0.526 0.17 0.828 0.287s0.539 0.268 0.709 0.454c0.17 0.186 0.335 0.406 0.494 0.661 0.287 0.457 0.43 1.107 0.43 1.951s-0.141 1.556-0.422 2.135c-0.281 0.579-0.656 1.017-1.123 1.314 1.221 1.922 1.832 3.143 1.832 3.664s-1.046 0.78-3.138 0.78c-0.605 0-1.025-0.027-1.258-0.080s-0.382-0.17-0.446-0.351l-1.035-3.281-0.271-0.016v3.266zM84.878 15.621h0.414c0.616 0 0.924-0.478 0.924-1.434 0-0.489-0.082-0.834-0.247-1.035s-0.353-0.303-0.566-0.303h-0.526v2.772zM99.9 21.802h-6.754c-0.52 0-0.871-0.037-1.051-0.111s-0.271-0.191-0.271-0.351v-10.083c0-0.276 0.125-0.473 0.374-0.589s0.698-0.175 1.346-0.175h6.404c0.223 0 0.335 0.369 0.335 1.107s-0.048 1.301-0.143 1.689c-0.096 0.388-0.223 0.581-0.382 0.581-0.69 0-1.853-0.069-3.489-0.207v1.067c1.572-0.064 2.596-0.096 3.074-0.096 0.287 0 0.43 0.335 0.43 1.004s-0.056 1.176-0.167 1.521c-0.112 0.345-0.263 0.518-0.454 0.518l-2.883-0.064v1.019c1.848-0.138 3.122-0.207 3.823-0.207 0.223 0 0.335 0.372 0.335 1.115s-0.048 1.306-0.143 1.688c-0.096 0.382-0.223 0.573-0.382 0.573zM105.937 20.989c-0.021 0.308-0.183 0.52-0.486 0.637s-0.847 0.175-1.633 0.175c-0.786 0-1.442-0.072-1.967-0.215s-0.788-0.326-0.788-0.549c0-0.255 0.473-1.882 1.418-4.882s1.487-4.728 1.625-5.185c0.053-0.138 0.481-0.252 1.282-0.342s1.662-0.135 2.581-0.135c0.919 0 1.426 0.159 1.521 0.478 2.007 6.669 3.011 10.057 3.011 10.163s-0.064 0.212-0.191 0.319c-0.297 0.234-0.887 0.351-1.768 0.351-1.88 0-2.841-0.223-2.883-0.669l-0.112-1.035h-1.529l-0.080 0.892zM107.211 17.071l-0.239-2.867h-0.35l-0.271 2.867h0.86zM115.749 21.802h-1.155c-0.504 0-0.847-0.037-1.027-0.111s-0.271-0.191-0.271-0.351v-10.051c0-0.244 0.326-0.438 0.98-0.581s1.351-0.215 2.095-0.215c0.743 0 1.274 0.095 1.593 0.287s0.504 0.393 0.558 0.605l1.083 4.205h0.143l1.019-4.014c0.074-0.287 0.422-0.539 1.043-0.757s1.304-0.326 2.047-0.326 1.293 0.058 1.649 0.175c0.356 0.117 0.534 0.265 0.534 0.446v10.227c0 0.138-0.303 0.25-0.908 0.334s-1.343 0.127-2.214 0.127c-0.871 0-1.306-0.154-1.306-0.462 0-0.839 0.090-2.331 0.271-4.476h-0.143l-0.828 4.158c-0.032 0.159-0.162 0.276-0.39 0.351s-0.571 0.111-1.028 0.111c-0.457 0-0.735-0.032-0.836-0.096s-0.167-0.186-0.199-0.366l-0.86-4.158h-0.143c0.191 2.188 0.287 3.68 0.287 4.476 0 0.276-0.664 0.43-1.991 0.462z"></path>
<path d="M16-0c8.837 0 16 7.163 16 16s-7.163 16-16 16-16-7.163-16-16 7.163-16 16-16z"></path>
<path d="M22.797 7.601c1.511 1.273 2.562 2.98 2.562 5.028v2.887c0.995 0.477 1.685 1.494 1.685 2.669s-0.69 2.192-1.685 2.669v2.874c0 1.53-0.597 2.985-1.658 4.067-0.658 0.671-1.458 1.16-2.329 1.435v1.905l-1.775 0.459-0.046-2.109h-7.134l0.066 2.128-1.887-0.418v-1.975c-0.858-0.276-1.646-0.762-2.296-1.425-1.060-1.081-1.658-2.536-1.658-4.067v-2.845c-1.029-0.463-1.748-1.499-1.748-2.698s0.719-2.235 1.748-2.698v-2.858c0-2.048 1.051-3.755 2.562-5.028 3.901-3.286 9.695-3.282 13.592 0zM6.643 18.402v-0.434c0.103-0.573 0.608-1.012 1.21-1.012h16.235c0.676 0 1.229 0.553 1.229 1.229v0c0 0.676-0.553 1.229-1.229 1.229h-4.659v3.076c0 0.518-0.425 0.943-0.943 0.943h-0c-0.519 0-0.943-0.424-0.943-0.943v-3.076h-9.69c-0.602 0-1.107-0.439-1.21-1.012zM21.157 21.143v1.348c0 1.473-1.199 2.672-2.672 2.672s-2.672-1.199-2.672-2.672v-1.348h-7.305v2.585c0 1.025 0.401 1.997 1.111 2.721s1.663 1.133 2.669 1.133h7.425c1.005 0 1.958-0.409 2.669-1.133s1.111-1.696 1.111-2.721v-2.585h-2.336zM8.509 15.228h14.985v-2.598c0-0.385-0.056-0.751-0.159-1.098-0.635 0.589-1.544 1.037-2.331 1.331-1.518 0.567-3.303 0.782-4.925 0.782s-3.408-0.214-4.926-0.782c-0.914-0.342-1.815-0.865-2.397-1.595-0.158 0.424-0.247 0.878-0.247 1.362v2.598zM16.091 11.579c-1.456 0.004-7.393-1.081-5.697-2.51 3.267-2.755 7.948-2.753 11.215 0 2.123 1.789-3.989 2.506-5.518 2.51z"></path>
</symbol>
<symbol id="icon-arrow2" viewBox="0 0 32 32">
<path d="M9.344 3.2l13.702 12.8-13.702 12.8"></path>
</symbol>
<symbol id="icon-arrow-right2" viewBox="0 0 32 32">
<path d="M19.414 27.414l10-10c0.781-0.781 0.781-2.047 0-2.828l-10-10c-0.781-0.781-2.047-0.781-2.828 0s-0.781 2.047 0 2.828l6.586 6.586h-19.172c-1.105 0-2 0.895-2 2s0.895 2 2 2h19.172l-6.586 6.586c-0.39 0.39-0.586 0.902-0.586 1.414s0.195 1.024 0.586 1.414c0.781 0.781 2.047 0.781 2.828 0z"></path>
</symbol>
<symbol id="icon-btn-arrow" viewBox="0 0 32 32">
<path d="M15.999 0c8.836 0 15.999 7.163 15.999 15.999s-7.163 15.999-15.999 15.999-15.999-7.163-15.999-15.999 7.163-15.999 15.999-15.999z"></path>
<path d="M18.959 14.942c-0.514 0.065-6.865 0.016-7.959 0.016-1.116 0-1.67-0.189-1.669 1.043 0.001 1.181 0.566 1.043 1.618 1.043l8.042 0.001c-0.126 0.226-2.093 2.119-2.444 2.468-0.443 0.439-0.938 0.834-0.258 1.519 0.59 0.594 0.919 0.764 1.597 0.081l3.7-3.699c0.267-0.267 1.084-0.921 1.084-1.411 0-0.489-0.791-1.121-1.058-1.386l-3.7-3.699c-0.63-0.634-0.945-0.62-1.57 0.005-0.685 0.687-0.357 1.040 0.161 1.56l2.457 2.462z"></path>
</symbol>
<symbol id="icon-Burger" viewBox="0 0 32 32">
<path d="M0 6.4h32"></path>
<path d="M0 16h32"></path>
<path d="M0 25.6h32"></path>
</symbol>
<symbol id="icon-comment" viewBox="0 0 32 32">
<path d="M23.714 4.148c1.429 0 2.778 0.385 4.048 1.156s2.302 1.879 3.095 3.324c0.762 1.445 1.143 3.148 1.143 5.107s-0.476 3.87-1.429 5.733c-0.317 0.674-0.889 1.542-1.714 2.602-0.857 1.060-1.651 1.975-2.381 2.746l-3 3.035-2.143-3.565c1.492-0.931 2.81-2.088 3.952-3.469 1.143-1.349 1.714-2.586 1.714-3.71 0-0.578-0.127-1.044-0.381-1.397-1.111 0.803-2.349 1.204-3.714 1.204-0.984 0-1.921-0.305-2.81-0.915-0.921-0.578-1.651-1.349-2.19-2.313-0.571-0.931-0.857-1.895-0.857-2.891 0-1.124 0.333-2.2 1-3.228 0.635-1.028 1.476-1.863 2.524-2.505 1.016-0.61 2.063-0.915 3.143-0.915zM6.619 4.148c1.429 0 2.778 0.385 4.048 1.156s2.302 1.879 3.095 3.324c0.762 1.445 1.143 3.148 1.143 5.107 0 1.381-0.175 2.618-0.524 3.71-0.349 1.124-0.952 2.297-1.809 3.517-0.825 1.156-1.603 2.12-2.333 2.891-0.73 0.803-2 2.136-3.81 3.999l-2.143-3.565c1.492-0.931 2.81-2.088 3.952-3.469 1.143-1.349 1.714-2.586 1.714-3.71 0-0.578-0.127-1.044-0.381-1.397-1.111 0.803-2.349 1.204-3.714 1.204-0.984 0-1.921-0.305-2.81-0.915-0.921-0.578-1.651-1.349-2.19-2.313-0.571-0.931-0.857-1.895-0.857-2.891 0-1.124 0.317-2.2 0.952-3.228s1.476-1.863 2.524-2.505c1.016-0.61 2.064-0.915 3.143-0.915z"></path>
</symbol>
<symbol id="icon-facebook" viewBox="0 0 32 32">
<path d="M16 32c8.837 0 16-7.163 16-16s-7.163-16-16-16-16 7.163-16 16 7.163 16 16 16z"></path>
<path d="M20.446 15.981h-2.611v9.619h-3.955v-9.619h-1.88v-3.379h1.88v-2.187c0-1.564 0.739-4.014 3.991-4.014l2.929 0.012v3.281h-2.125c-0.348 0-0.839 0.176-0.839 0.922v1.989h2.955l-0.345 3.377z"></path>
</symbol>
<symbol id="icon-github" viewBox="0 0 32 32">
<path d="M32 16c0 8.837-7.163 16-16 16s-16-7.163-16-16c0-8.837 7.163-16 16-16s16 7.163 16 16z"></path>
<path d="M16 6.588c-5.17 0-9.412 4.242-9.412 9.412 0 4.411 3.096 8.419 7.206 9.412v-3.113c-0.408 0.088-0.781 0.091-1.196-0.031-0.556-0.164-1.008-0.535-1.344-1.099-0.214-0.36-0.593-0.753-0.988-0.724l-0.097-1.098c0.856-0.073 1.594 0.521 2.033 1.258 0.196 0.328 0.421 0.52 0.709 0.605 0.278 0.083 0.577 0.043 0.925-0.080 0.088-0.697 0.408-0.958 0.649-1.327-2.452-0.365-3.429-1.666-3.816-2.692-0.514-1.364-0.238-3.066 0.67-4.143 0.018-0.021 0.050-0.075 0.038-0.113-0.417-1.259 0.090-2.3 0.109-2.41 0.481 0.141 0.559-0.143 2.089 0.786l0.264 0.159c0.111 0.066 0.075 0.028 0.186 0.019 0.59-0.166 1.269-0.266 1.97-0.276l0.006-0c0.668 0.008 1.336 0.104 2.002 0.284l0.086 0.009c-0.008-0.002 0.024-0.006 0.075-0.037 1.911-1.158 1.842-0.779 2.355-0.946 0.019 0.111 0.519 1.169 0.106 2.411-0.056 0.171 1.656 1.739 0.708 4.256-0.388 1.026-1.365 2.328-3.816 2.693 0.314 0.48 0.692 0.734 0.69 1.722v3.886c4.109-0.993 7.206-5 7.206-9.412 0-5.17-4.242-9.412-9.412-9.412z"></path>
</symbol>
</defs>
</svg>
