<svg aria-hidden="true" style="position: absolute; width: 0; height: 0; overflow: hidden;" version="1.1" xmlns="http://www.w3.org/2000/svg" xmlns:xlink="http://www.w3.org/1999/xlink">
<defs>
<symbol id="icon-points" viewBox="0 0 32 32">
<path fill="#c7133e" style="fill: var(--color1, #c7133e)" d="M2.030 13.935c1.121 0 2.030 0.909 2.030 2.030s-0.909 2.030-2.030 2.030c-1.121 0-2.030-0.909-2.030-2.030s0.909-2.030 2.030-2.030zM29.809 13.935c1.121 0 2.030 0.909 2.030 2.030s-0.909 2.030-2.030 2.030c-1.121 0-2.030-0.909-2.030-2.030s0.909-2.030 2.030-2.030zM15.96 13.935c1.121 0 2.030 0.909 2.030 2.030s-0.909 2.030-2.030 2.030c-1.121 0-2.030-0.909-2.030-2.030s0.909-2.030 2.030-2.030z"></path>
</symbol>
<symbol id="icon-points-white" viewBox="0 0 32 32">
<path fill="#fefefe" style="fill: var(--color2, #fefefe)" d="M2.266 16.005c1.232 0 2.266 0.985 2.266 2.266 0 1.232-0.985 2.266-2.266 2.266-1.232 0-2.266-0.985-2.266-2.266 0-1.232 0.985-2.266 2.266-2.266zM33.004 16.005c1.231 0 2.266 0.985 2.266 2.266 0 1.232-0.985 2.266-2.266 2.266-1.232 0-2.266-0.985-2.266-2.266 0-1.232 0.985-2.266 2.266-2.266zM17.684 16.005c1.232 0 2.266 0.985 2.266 2.266 0 1.232-0.985 2.266-2.266 2.266-1.232 0-2.266-0.985-2.266-2.266 0-1.232 0.985-2.266 2.266-2.266z"></path>
</symbol>
<symbol id="icon-arrow-right" viewBox="0 0 31 32">
<path fill="#d41443" style="fill: var(--color3, #d41443)" d="M23.736 13.61h-23.734v4.652h23.834l-8.603 10.597 0.027 0.018c-0.273 0.328-0.428 0.747-0.428 1.193 0 1.065 0.892 1.921 1.994 1.921 0.592 0 1.12-0.246 1.484-0.637l0.046 0.036 12.5-15.413-12.5-15.386-0.018 0.009c-0.364-0.373-0.883-0.61-1.457-0.61-1.102 0-1.994 0.865-1.994 1.921 0 0.437 0.146 0.838 0.401 1.156l-0.064 0.046 8.503 10.479z"></path>
</symbol>
<symbol id="icon-fb-icon" viewBox="0 0 32 32">
<path fill="#ffa5ba" style="fill: var(--color4, #ffa5ba)" d="M13.83 12.57c0-5.994 1.192-6.211 7.005-6.211l-0.108 3.358c-3.178 0-2.889-0.325-2.889 2.816l2.889 0.036-0.289 3.394-2.6 0.072v9.569l-4.008-0.072-0.072-9.533h-1.842c0-0.939-0.217-2.636 0.181-3.43h1.697zM0.036 17.408c0.722 8.341 7.98 15.202 17.188 14.516 8.413-0.614 15.418-8.016 14.66-17.26-0.686-8.486-8.161-15.418-17.404-14.624-8.269 0.686-15.274 8.161-14.48 17.368z"></path>
</symbol>
<symbol id="icon-github-icon" viewBox="0 0 32 32">
<path fill="#ffa5ba" style="fill: var(--color4, #ffa5ba)" d="M14.322 19.896c-0.229 0.709-0.157 0.787-0.796 1.369-1.151-0.085-1.020-0.27-1.644-0.98-0.069-0.079-0.513-0.54-0.633-0.606l-1.035-0.030c0.28 1.415-0.411-0.245 1.382 1.93 0.299 0.364 0.329 0.395 0.87 0.579 0.297 0.102 0.334 0.069 0.586 0.147 0.069 0.021 0.136 0.038 0.201 0.061 0.067 0.023 0.14 0.052 0.2 0.075l0.391 2.99c-4.123-0.916-7.758-5.173-7.235-10.467 1.065-10.804 17.279-11.329 18.735-0.225 0.701 5.338-2.97 9.784-7.187 10.671 0-2.163 0.242-3.727-0.484-5.515 0.549-0.316 5.515-1.664 3.439-6.111-0.814-1.743-0.064-1.386-0.586-3.118-1.008-0.228-1.294 0.272-2.058 0.564l-4.937 0.008c-0.831-0.344-0.887-0.78-2.073-0.609-0.421 1.578 0.123 1.663-0.479 2.991-2.117 4.665 2.466 5.768 3.344 6.275zM31.901 17.668c1-9.218-6.054-16.766-14.169-17.582-9.377-0.943-16.809 5.99-17.647 14.268-0.949 9.374 6.050 16.742 14.257 17.561 9.389 0.936 16.664-5.998 17.559-14.247z"></path>
</symbol>
<symbol id="icon-hause-icon" viewBox="0 0 32 32">
<path fill="#c7133e" style="fill: var(--color1, #c7133e)" d="M13.189 20.587v10.477c0.006 0.261-0.054 0.22-0.233 0.229h-7.947c-0.36-0.089-0.554 0.124-0.554-0.456v-14.174l-2.049 1.099c-0.351 0.191-0.698 0.242-1.013 0.185-0.223-0.041-0.427-0.137-0.602-0.274-0.172-0.137-0.319-0.315-0.43-0.523-0.249-0.465-0.561-1.179-0.188-1.647 5.322-4.777 10.586-9.445 15.98-14.135 0.045-0.038 0.118-0.041 0.163 0 5.395 4.687 10.659 9.356 15.98 14.135 0.373 0.468 0.061 1.182-0.188 1.647-0.112 0.207-0.258 0.386-0.43 0.523-0.175 0.14-0.379 0.233-0.602 0.274-0.315 0.057-0.66 0.006-1.013-0.185l-2.049-1.099v14.174c0 0.577-0.194 0.366-0.554 0.456h-7.947c-0.178-0.010-0.239 0.032-0.233-0.229v-10.477c-2.030 0-4.060 0-6.089 0z"></path>
</symbol>
<symbol id="icon-icon1milk" viewBox="0 0 32 32">
<path fill="#ffa5ba" style="fill: var(--color4, #ffa5ba)" d="M4.008 13.982h0.121v-0.061c7.354 0 14.89 0 22.245 0-0.091 0.545-0.182 1.059-0.333 1.574l-2.754 18.371h-15.768l-3.48-19.884zM23.65 3.844l0.242 0.272c0.999 1.241 0.817 3.087-0.393 4.086-1.211 1.029-3.026 0.847-4.056-0.393l-0.030-0.030c-0.363 0.151-0.726 0.272-1.090 0.363v1.18c0 1.604-1.301 2.905-2.875 2.905s-2.875-1.332-2.845-2.936v-1.15c-0.514-0.151-1.029-0.333-1.513-0.545l-0.182 0.212c-0.999 1.241-2.815 1.422-4.056 0.393-1.211-1.029-1.392-2.875-0.393-4.086l0.666-0.787c-0.121-0.454-0.182-0.908-0.182-1.362l0.030-1.967h16.948l0.030 1.967c0 0.666-0.121 1.271-0.333 1.876zM22.076 1.937v0.030c0 0.757-0.272 1.483-0.726 2.119l1.059 1.271c0.333 0.424 0.272 1.029-0.121 1.362v0c-0.393 0.333-1.029 0.272-1.362-0.121l-0.999-1.211c-0.938 0.605-2.149 1.029-3.511 1.18v2.784c0 0.545-0.424 0.968-0.968 0.968v0c-0.514 0-0.968-0.454-0.968-0.968v-2.784c-1.513-0.151-2.875-0.666-3.874-1.422l-1.211 1.483c-0.333 0.424-0.938 0.484-1.362 0.121v0c-0.393-0.333-0.454-0.968-0.121-1.362l1.362-1.695c-0.303-0.514-0.454-1.090-0.454-1.695v-0.030h13.195zM23.257 21.125c-2.058 2.542-4.873 4.116-8.020 4.116s-5.992-1.574-8.020-4.146l1.907 10.835h12.53l1.634-10.805zM6.581 15.919c1.422 4.328 4.782 7.385 8.686 7.385s7.264-3.057 8.686-7.385h-17.372z"></path>
</symbol>
<symbol id="icon-icon2apple" viewBox="0 0 32 32">
<path fill="#ffa5ba" style="fill: var(--color4, #ffa5ba)" d="M27.766 17.36c0.303-0.326-2.045 4.12-1.681 3.916 0.613-0.333 1.825-0.53 2.56-0.174 1.909 0.916 3.348 2.696 3.348 4.885 0 3.514-3.469 5.627-6.688 5.627-1.341 0-2.727-0.364-3.885-1.045l-0.189 1.431h-17.39l-3.855-21.109h0.129l-0.015-0.076c8.112 0 16.42 0 24.532 0-0.091 0.568-0.212 1.129-0.356 1.674l-1.325 8.49c0.447 0.045 0.879 0.235 1.272 0.5 0.212 0.144 1.113-4.249 1.303-4.067 0.098 0.098 2.136 0.045 2.227-0.053zM19.586 28.933c-0.598-0.818-0.962-1.81-0.962-2.946 0-1.651 0.826-3.083 2.060-4.075l0.538-3.431c-2.257 2.689-5.385 4.355-8.839 4.355-3.461 0-6.597-1.681-8.862-4.385l2.098 11.482h13.807l0.159-1.007zM2.81 12.944c1.575 4.605 5.264 7.839 9.573 7.839s8.006-3.234 9.573-7.839h-19.147zM12.505 10.793h-1.78c0.326-0.356 0.591-0.75 0.795-1.151 0.523-1.038 0.614-2.181 0.159-3.181l-0.015-0.038c-0.311-0.644-0.81-1.151-1.439-1.5-0.644-0.364-1.416-0.553-2.234-0.553-0.568 0-0.757 0.682-0.954 1.401-0.159 0.576-0.326 1.189-0.667 1.348-0.379 0.182-0.985-0.045-1.553-0.258-0.72-0.265-1.386-0.515-1.742-0.030-0.454 0.621-0.75 1.31-0.856 2-0.098 0.666-0.015 1.341 0.273 1.954l0.008 0.015h-1.538c-0.22-0.682-0.265-1.386-0.174-2.083 0.129-0.969 0.53-1.916 1.136-2.734 0.265-0.356 0.583-0.583 0.932-0.712 0.401-0.144 0.848-0.159 1.295-0.091 0.136 0.015 0.212-0.053 0.235-0.205 0.038-0.265-0.144-1.227-0.326-2.181-0.159-0.826-0.311-1.636-0.318-1.886 0.227-0.068 0.614-0.242 0.977-0.424 0.341-0.167 0.674-0.356 0.871-0.5 0 0.197-0.114 0.704-0.121 1.325-0.008 1.235-0.023 2.734 0.159 2.863v0c0.106 0.076 0.197 0.061 0.28-0.053 0.205-0.28 0.583-0.606 1.007-0.848 0.356-0.197 0.742-0.333 1.083-0.333 1.075 0.008 2.128 0.265 3.022 0.788 0.818 0.477 1.5 1.166 1.931 2.075l0.008 0.015c0.727 1.53 0.553 3.12-0.159 4.491-0.091 0.174-0.182 0.341-0.288 0.5zM23.502 10.8h-1.568c0.235-0.462 0.371-0.977 0.371-1.515 0-0.72-0.235-1.394-0.651-1.977-0.424-0.598-1.038-1.098-1.78-1.454-0.5-0.242-0.962 0.288-1.454 0.856-0.394 0.454-0.81 0.932-1.182 0.932-0.424 0-0.871-0.462-1.295-0.901-0.53-0.553-1.030-1.060-1.56-0.78-0.583 0.311-0.795 0.28-1.113 0.704-0.076-0.303-0.174-0.553-0.311-0.856l-0.008-0.015c-0.083-0.182-0.189-0.364-0.295-0.53 0.227-0.159 0.803-0.432 1.053-0.568 0.386-0.205 0.773-0.28 1.144-0.242 0.424 0.045 0.826 0.22 1.204 0.477 0.114 0.083 0.22 0.053 0.303-0.076 0.151-0.212 0.401-1.166 0.644-2.106 0.212-0.81 0.424-1.613 0.523-1.84 0.235 0.038 0.651 0.045 1.060 0.038 0.379-0.015 0.757-0.038 1-0.083-0.091 0.174-0.409 0.583-0.682 1.144-0.538 1.113-1.189 2.462-1.083 2.658 0.061 0.114 0.151 0.144 0.273 0.076 0.311-0.167 0.788-0.303 1.272-0.333 0.409-0.030 0.818 0.008 1.129 0.159 0.969 0.462 1.81 1.151 2.393 2.007 0.538 0.788 0.856 1.704 0.856 2.719 0 0.538-0.083 1.045-0.242 1.515zM25.312 24.524c-1.023 0-1.977-2.121-2.764-1.697-1.288 0.697-2.128 1.856-2.128 3.166 0 2.113 2.189 3.832 4.893 3.832s4.893-1.719 4.893-3.832c0-1.386-0.932-2.598-2.333-3.272-0.742-0.364-1.621 1.803-2.56 1.803z"></path>
</symbol>
<symbol id="icon-icon3candy" viewBox="0 0 28 32">
<path fill="#ffa5ba" style="fill: var(--color4, #ffa5ba)" d="M14.073 2.791c1.566-1.854 3.437-2.791 6.299-2.791 3.78 0 7.774 2.538 7.774 6.626 0 3.343-2.159 6.359-4.325 8.72-0.807 0.881-6.899 6.237-7.541 6.707v9.947h-4.563v-9.947c-2.567-2.101-5.144-4.258-7.392-6.707-2.166-2.361-4.325-5.377-4.325-8.72 0-4.087 3.994-6.626 7.774-6.626 2.86 0 4.731 0.937 6.299 2.791zM3.151 11.373c0.471-1.186 1.458-3.511 2.973-3.6 1.388-0.082 2.082 1.395 2.519 2.476 0.146 0.363 0.761 2.113 1.047 2.245 1.198-0.053 1.438-4.577 3.89-4.721 1.388-0.082 2.082 1.395 2.519 2.476 0.146 0.363 0.761 2.113 1.047 2.245 0.454-0.022 1.136-1.64 1.306-2.005 0.495-1.064 1.203-2.637 2.562-2.716 1.388-0.082 2.082 1.395 2.519 2.476 0.122 0.305 0.574 1.583 0.884 2.065 1.395-1.897 2.25-3.794 2.25-5.689 0-2.843-2.822-5.149-6.297-5.149-3.151 0-4.724 1.287-6.299 3.862-1.575-2.574-3.148-3.862-6.299-3.862-3.477 0-6.297 2.305-6.297 5.149 0 1.607 0.612 3.211 1.647 4.815l0.026-0.067zM23.47 13.511c-0.567-0.598-0.891-1.587-1.138-2.245-0.146-0.389-0.687-1.996-1.232-1.964-1.174 0.070-1.635 4.625-3.907 4.719-1.352 0.058-1.914-1.744-2.293-2.755-0.146-0.391-0.687-1.996-1.234-1.964-1.323 0.077-1.374 4.613-3.929 4.719-1.352 0.058-1.914-1.744-2.293-2.755-0.146-0.389-0.687-1.996-1.232-1.964-0.61 0.036-1.431 2.253-1.7 2.658l-0.49 0.737c2.411 3.117 6.222 6.234 10.036 9.354h0.041c3.482-2.848 6.964-5.694 9.378-8.542zM12.773 23.53h2.421v6.993h-2.421v-6.993z"></path>
</symbol>
<symbol id="icon-point-grey" viewBox="0 0 32 32">
<path fill="#d9d9d9" style="fill: var(--color5, #d9d9d9)" d="M31.999 16c0 8.836-7.163 16-16 16s-16-7.163-16-16c0-8.836 7.163-16 16-16s16 7.163 16 16z"></path>
</symbol>
<symbol id="icon-q" viewBox="0 0 32 32">
<path fill="#e1e1e1" style="fill: var(--color6, #e1e1e1)" d="M5.609 3.351c3.384-0.627 6.217 0.742 7.928 3.156 1.179 1.654 1.407 4.069 1.597 5.78 0.665 5.609-4.506 12.339-8.898 14.925l-2.053-3.346c3.118-1.293 6.312-5.476 5.97-8.917-4.316 2.472-9.145 0.837-10.077-4.145-0.627-3.422 2.129-6.807 5.514-7.434zM22.93 3.351c3.384-0.627 6.217 0.742 7.928 3.156 1.179 1.654 1.407 4.069 1.597 5.78 0.665 5.609-4.506 12.339-8.898 14.925l-2.053-3.346c3.118-1.293 6.312-5.476 5.989-8.917-4.316 2.472-9.145 0.837-10.077-4.145-0.627-3.422 2.129-6.807 5.514-7.434z"></path>
</symbol>
<symbol id="icon-small-arrow" viewBox="0 0 32 32">
<path fill="#d41443" style="fill: var(--color3, #d41443)" d="M18.059 15.607c-1.561 1.474-11.519 9.508-11.952 11.264-0.584 2.348 1.307 4.279 3.759 3.755 1.438-0.306 10.191-8.809 12.651-10.776 1.085-0.866 3.481-2.69 3.326-4.76-0.191-2.559-9.639-9.564-11.793-11.697-1.22-1.208-2.869-3.151-4.589-3.385-1.045-0.139-7.47 1.411 0.437 7.927 1.462 1.204 7.442 6.433 8.165 7.672z"></path>
</symbol>
<symbol id="icon-telegram-icon" viewBox="0 0 32 32">
<path fill="#ffa5ba" style="fill: var(--color4, #ffa5ba)" d="M31.75 18.663c-1.332 7.802-8.718 14.71-18.309 13.108-7.969-1.332-14.772-8.822-13.191-18.414 1.29-7.844 8.822-14.772 18.476-13.108 7.761 1.332 14.606 8.905 13.004 18.393zM5.472 14.856c-0.395 0.333-0.354 0.666 0.416 0.957l4.328 1.332 10.549-5.971-8.177 7.116 0.166 4.39 2.455-2.372 5.451 3.35 3.599-14.335c0.083-0.645-0.083-1.020-0.624-0.957-6.075 2.164-12.13 4.348-18.205 6.512z"></path>
</symbol>
</defs>
</svg>
