<?xml version="1.0" encoding="UTF-8"?>
<!DOCTYPE svg PUBLIC "-//W3C//DTD SVG 1.1//EN" "http://www.w3.org/Graphics/SVG/1.1/DTD/svg11.dtd">
<!-- Creator: CorelDRAW 2021 (64-Bit) -->
<svg xmlns="http://www.w3.org/2000/svg" xml:space="preserve" width="61.6882mm" height="7.8675mm" version="1.1" style="shape-rendering:geometricPrecision; text-rendering:geometricPrecision; image-rendering:optimizeQuality; fill-rule:evenodd; clip-rule:evenodd"
viewBox="0 0 2090.69 266.64"
 xmlns:xlink="http://www.w3.org/1999/xlink"
 xmlns:xodm="http://www.corel.com/coreldraw/odm/2003">
 <defs>
  <style type="text/css">
   <![CDATA[
    .fil0 {fill:#C7133E}
   ]]>
  </style>
 </defs>
 <g id="Слой_x0020_1">
  <metadata id="CorelCorpID_0Corel-Layer"/>
  <path class="fil0" d="M133.32 0c73.63,0 133.32,59.69 133.32,133.32 0,73.63 -59.69,133.32 -133.32,133.32 -73.63,0 -133.32,-59.69 -133.32,-133.32 0,-73.63 59.69,-133.32 133.32,-133.32zm1824.05 0c73.63,0 133.32,59.69 133.32,133.32 0,73.63 -59.69,133.32 -133.32,133.32 -73.63,0 -133.32,-59.69 -133.32,-133.32 0,-73.63 59.69,-133.32 133.32,-133.32zm-909.37 0c73.63,0 133.32,59.69 133.32,133.32 0,73.63 -59.69,133.32 -133.32,133.32 -73.63,0 -133.32,-59.69 -133.32,-133.32 0,-73.63 59.69,-133.32 133.32,-133.32z"/>
 </g>
</svg>
