<?xml version="1.0" encoding="UTF-8"?>
<!DOCTYPE svg PUBLIC "-//W3C//DTD SVG 1.1//EN" "http://www.w3.org/Graphics/SVG/1.1/DTD/svg11.dtd">
<!-- Creator: CorelDRAW 2021 (64-Bit) -->
<svg xmlns="http://www.w3.org/2000/svg" xml:space="preserve" width="4.5101mm" height="0.5753mm" version="1.1" style="shape-rendering:geometricPrecision; text-rendering:geometricPrecision; image-rendering:optimizeQuality; fill-rule:evenodd; clip-rule:evenodd"
viewBox="0 0 30 3.83"
 xmlns:xlink="http://www.w3.org/1999/xlink"
 xmlns:xodm="http://www.corel.com/coreldraw/odm/2003">
 <defs>
  <style type="text/css">
   <![CDATA[
    .fil0 {fill:#FEFEFE}
   ]]>
  </style>
 </defs>
 <g id="Слой_x0020_1">
  <metadata id="CorelCorpID_0Corel-Layer"/>
  <path class="fil0" d="M1.91 0c1.06,0 1.91,0.86 1.91,1.91 0,1.06 -0.86,1.91 -1.91,1.91 -1.06,0 -1.91,-0.86 -1.91,-1.91 0,-1.06 0.86,-1.91 1.91,-1.91zm26.17 0c1.06,0 1.91,0.86 1.91,1.91 0,1.06 -0.86,1.91 -1.91,1.91 -1.06,0 -1.91,-0.86 -1.91,-1.91 0,-1.06 0.86,-1.91 1.91,-1.91zm-13.05 0c1.06,0 1.91,0.86 1.91,1.91 0,1.06 -0.86,1.91 -1.91,1.91 -1.06,0 -1.91,-0.86 -1.91,-1.91 0,-1.06 0.86,-1.91 1.91,-1.91z"/>
 </g>
</svg>
